<mxfile host="Electron" modified="2023-08-02T18:28:50.925Z" agent="Mozilla/5.0 (Macintosh; Intel Mac OS X 10_15_7) AppleWebKit/537.36 (KHTML, like Gecko) draw.io/21.5.1 Chrome/112.0.5615.204 Electron/24.6.0 Safari/537.36" etag="cwio75pPOTY-cWSIEc0M" version="21.5.1" type="device">
  <diagram name="Page-1" id="v4h8cuN9k5emu2MmvlAZ">
    <mxGraphModel dx="1213" dy="806" grid="1" gridSize="10" guides="1" tooltips="1" connect="1" arrows="1" fold="1" page="1" pageScale="1" pageWidth="850" pageHeight="1100" math="0" shadow="0">
      <root>
        <mxCell id="0" />
        <mxCell id="1" parent="0" />
        <mxCell id="ggkkgFJlhI_n2AfVCItk-10" value="NavBar" style="swimlane;whiteSpace=wrap;html=1;fillColor=#FFFF00;" vertex="1" parent="1">
          <mxGeometry x="290" y="180" width="290" height="490" as="geometry" />
        </mxCell>
        <mxCell id="ggkkgFJlhI_n2AfVCItk-3" value="&lt;font color=&quot;#ff3333&quot;&gt;Logout&lt;/font&gt;" style="swimlane;fontStyle=0;childLayout=stackLayout;horizontal=1;startSize=26;fillColor=none;horizontalStack=0;resizeParent=1;resizeParentMax=0;resizeLast=0;collapsible=1;marginBottom=0;html=1;" vertex="1" parent="ggkkgFJlhI_n2AfVCItk-10">
          <mxGeometry x="20" y="220" width="250" height="160" as="geometry" />
        </mxCell>
        <mxCell id="ggkkgFJlhI_n2AfVCItk-4" value="&lt;div style=&quot;color: rgb(204, 204, 204); background-color: rgb(31, 31, 31); font-family: Menlo, Monaco, &amp;quot;Courier New&amp;quot;, monospace; line-height: 18px;&quot;&gt;&lt;div&gt;const &lt;span style=&quot;color: #dcdcaa;&quot;&gt;handleLogout&lt;/span&gt; &lt;span style=&quot;color: #d4d4d4;&quot;&gt;=&lt;/span&gt; () &lt;span style=&quot;color: #569cd6;&quot;&gt;=&amp;gt;&lt;/span&gt; {&lt;/div&gt;&lt;div&gt;    &lt;span style=&quot;color: #dcdcaa;&quot;&gt;toggleNavbar&lt;/span&gt;();&lt;/div&gt;&lt;div&gt;    &lt;span style=&quot;color: #dcdcaa;&quot;&gt;dispatch&lt;/span&gt;(&lt;span style=&quot;color: #dcdcaa;&quot;&gt;setUser&lt;/span&gt;(&lt;span style=&quot;color: #569cd6;&quot;&gt;null&lt;/span&gt;));&lt;/div&gt;&lt;div&gt;    &lt;span style=&quot;color: #dcdcaa;&quot;&gt;dispatch&lt;/span&gt;(&lt;span style=&quot;color: #dcdcaa;&quot;&gt;setSelectedMovie&lt;/span&gt;(&lt;span style=&quot;color: #569cd6;&quot;&gt;null&lt;/span&gt;));&lt;/div&gt;&lt;div&gt;    &lt;span style=&quot;color: #dcdcaa;&quot;&gt;dispatch&lt;/span&gt;(&lt;span style=&quot;color: #dcdcaa;&quot;&gt;setMovies&lt;/span&gt;([]));&lt;/div&gt;&lt;div&gt;    &lt;span style=&quot;color: #dcdcaa;&quot;&gt;dispatch&lt;/span&gt;(&lt;span style=&quot;color: #dcdcaa;&quot;&gt;setFavoriteMovies&lt;/span&gt;([]));&lt;/div&gt;&lt;div&gt;    &lt;span style=&quot;color: #9cdcfe;&quot;&gt;token&lt;/span&gt; &lt;span style=&quot;color: #d4d4d4;&quot;&gt;=&lt;/span&gt; &lt;span style=&quot;color: #569cd6;&quot;&gt;null&lt;/span&gt;;&lt;/div&gt;&lt;div&gt;    &lt;span style=&quot;color: #9cdcfe;&quot;&gt;localStorage&lt;/span&gt;.&lt;span style=&quot;color: #dcdcaa;&quot;&gt;clear&lt;/span&gt;();&lt;/div&gt;&lt;div&gt;    &lt;span style=&quot;color: #9cdcfe;&quot;&gt;console&lt;/span&gt;.&lt;span style=&quot;color: #dcdcaa;&quot;&gt;log&lt;/span&gt;(&lt;span style=&quot;color: #ce9178;&quot;&gt;&#39;Logged out!!!&#39;&lt;/span&gt;);&lt;/div&gt;&lt;div&gt;  };&lt;/div&gt;&lt;/div&gt;" style="text;strokeColor=none;fillColor=none;align=left;verticalAlign=top;spacingLeft=4;spacingRight=4;overflow=hidden;rotatable=0;points=[[0,0.5],[1,0.5]];portConstraint=eastwest;whiteSpace=wrap;html=1;" vertex="1" parent="ggkkgFJlhI_n2AfVCItk-3">
          <mxGeometry y="26" width="250" height="134" as="geometry" />
        </mxCell>
        <mxCell id="iBfB90R6LH0oebGci-8M-38" value="Nav.Links" style="swimlane;fontStyle=0;childLayout=stackLayout;horizontal=1;startSize=26;fillColor=none;horizontalStack=0;resizeParent=1;resizeParentMax=0;resizeLast=0;collapsible=1;marginBottom=0;html=1;" parent="ggkkgFJlhI_n2AfVCItk-10" vertex="1">
          <mxGeometry x="70" y="40" width="140" height="156" as="geometry">
            <mxRectangle x="20" y="40" width="80" height="30" as="alternateBounds" />
          </mxGeometry>
        </mxCell>
        <mxCell id="iBfB90R6LH0oebGci-8M-39" value="Login" style="text;strokeColor=none;fillColor=none;align=left;verticalAlign=top;spacingLeft=4;spacingRight=4;overflow=hidden;rotatable=0;points=[[0,0.5],[1,0.5]];portConstraint=eastwest;whiteSpace=wrap;html=1;" parent="iBfB90R6LH0oebGci-8M-38" vertex="1">
          <mxGeometry y="26" width="140" height="26" as="geometry" />
        </mxCell>
        <mxCell id="iBfB90R6LH0oebGci-8M-40" value="Home" style="text;strokeColor=none;fillColor=none;align=left;verticalAlign=top;spacingLeft=4;spacingRight=4;overflow=hidden;rotatable=0;points=[[0,0.5],[1,0.5]];portConstraint=eastwest;whiteSpace=wrap;html=1;" parent="iBfB90R6LH0oebGci-8M-38" vertex="1">
          <mxGeometry y="52" width="140" height="26" as="geometry" />
        </mxCell>
        <mxCell id="ggkkgFJlhI_n2AfVCItk-1" value="Signup&lt;br&gt;" style="text;strokeColor=none;fillColor=none;align=left;verticalAlign=top;spacingLeft=4;spacingRight=4;overflow=hidden;rotatable=0;points=[[0,0.5],[1,0.5]];portConstraint=eastwest;whiteSpace=wrap;html=1;" vertex="1" parent="iBfB90R6LH0oebGci-8M-38">
          <mxGeometry y="78" width="140" height="26" as="geometry" />
        </mxCell>
        <mxCell id="ggkkgFJlhI_n2AfVCItk-2" value="Profile" style="text;strokeColor=none;fillColor=none;align=left;verticalAlign=top;spacingLeft=4;spacingRight=4;overflow=hidden;rotatable=0;points=[[0,0.5],[1,0.5]];portConstraint=eastwest;whiteSpace=wrap;html=1;" vertex="1" parent="iBfB90R6LH0oebGci-8M-38">
          <mxGeometry y="104" width="140" height="26" as="geometry" />
        </mxCell>
        <mxCell id="iBfB90R6LH0oebGci-8M-41" value="&lt;font color=&quot;#ff3333&quot;&gt;Logout&lt;/font&gt;" style="text;strokeColor=none;fillColor=none;align=left;verticalAlign=top;spacingLeft=4;spacingRight=4;overflow=hidden;rotatable=0;points=[[0,0.5],[1,0.5]];portConstraint=eastwest;whiteSpace=wrap;html=1;" parent="iBfB90R6LH0oebGci-8M-38" vertex="1">
          <mxGeometry y="130" width="140" height="26" as="geometry" />
        </mxCell>
        <mxCell id="ggkkgFJlhI_n2AfVCItk-11" value="toggleNavbar" style="swimlane;fontStyle=0;childLayout=stackLayout;horizontal=1;startSize=26;fillColor=none;horizontalStack=0;resizeParent=1;resizeParentMax=0;resizeLast=0;collapsible=1;marginBottom=0;html=1;" vertex="1" parent="ggkkgFJlhI_n2AfVCItk-10">
          <mxGeometry x="20" y="400" width="250" height="90" as="geometry" />
        </mxCell>
        <mxCell id="ggkkgFJlhI_n2AfVCItk-12" value="&lt;div style=&quot;color: rgb(204, 204, 204); background-color: rgb(31, 31, 31); font-family: Menlo, Monaco, &amp;quot;Courier New&amp;quot;, monospace; line-height: 18px;&quot;&gt;&lt;div style=&quot;line-height: 18px;&quot;&gt;&lt;div&gt;const &lt;span style=&quot;color: #dcdcaa;&quot;&gt;toggleNavbar&lt;/span&gt; &lt;span style=&quot;color: #d4d4d4;&quot;&gt;=&lt;/span&gt; () &lt;span style=&quot;color: #569cd6;&quot;&gt;=&amp;gt;&lt;/span&gt; {&lt;/div&gt;&lt;div&gt;    &lt;span style=&quot;color: #dcdcaa;&quot;&gt;setExpanded&lt;/span&gt;(&lt;span style=&quot;color: #d4d4d4;&quot;&gt;!&lt;/span&gt;&lt;span style=&quot;color: #4fc1ff;&quot;&gt;expanded&lt;/span&gt;);&lt;/div&gt;&lt;div&gt;  };&lt;/div&gt;&lt;/div&gt;&lt;/div&gt;" style="text;strokeColor=none;fillColor=none;align=left;verticalAlign=top;spacingLeft=4;spacingRight=4;overflow=hidden;rotatable=0;points=[[0,0.5],[1,0.5]];portConstraint=eastwest;whiteSpace=wrap;html=1;" vertex="1" parent="ggkkgFJlhI_n2AfVCItk-11">
          <mxGeometry y="26" width="250" height="64" as="geometry" />
        </mxCell>
        <mxCell id="ggkkgFJlhI_n2AfVCItk-288" style="edgeStyle=orthogonalEdgeStyle;rounded=0;orthogonalLoop=1;jettySize=auto;html=1;" edge="1" parent="1" source="ggkkgFJlhI_n2AfVCItk-245" target="ggkkgFJlhI_n2AfVCItk-265">
          <mxGeometry relative="1" as="geometry">
            <Array as="points">
              <mxPoint x="100" y="1370" />
              <mxPoint x="133" y="1370" />
            </Array>
          </mxGeometry>
        </mxCell>
        <mxCell id="ggkkgFJlhI_n2AfVCItk-30" value="MainView" style="swimlane;whiteSpace=wrap;html=1;fillColor=#FFFF00;shadow=1;" vertex="1" parent="1">
          <mxGeometry x="10" y="150" width="210" height="1070" as="geometry" />
        </mxCell>
        <mxCell id="ggkkgFJlhI_n2AfVCItk-31" value="&lt;b&gt;&lt;font color=&quot;#ff8000&quot;&gt;get localStorage&lt;/font&gt;&lt;/b&gt;" style="swimlane;fontStyle=0;childLayout=stackLayout;horizontal=1;startSize=26;fillColor=none;horizontalStack=0;resizeParent=1;resizeParentMax=0;resizeLast=0;collapsible=1;marginBottom=0;html=1;" vertex="1" parent="ggkkgFJlhI_n2AfVCItk-30">
          <mxGeometry x="35" y="30" width="140" height="60" as="geometry" />
        </mxCell>
        <mxCell id="ggkkgFJlhI_n2AfVCItk-32" value="&lt;font color=&quot;#ff8000&quot;&gt;&lt;b&gt;token&lt;br&gt;storedUser&lt;br&gt;&lt;/b&gt;&lt;/font&gt;" style="text;strokeColor=none;fillColor=none;align=left;verticalAlign=top;spacingLeft=4;spacingRight=4;overflow=hidden;rotatable=0;points=[[0,0.5],[1,0.5]];portConstraint=eastwest;whiteSpace=wrap;html=1;" vertex="1" parent="ggkkgFJlhI_n2AfVCItk-31">
          <mxGeometry y="26" width="140" height="34" as="geometry" />
        </mxCell>
        <mxCell id="ggkkgFJlhI_n2AfVCItk-34" value="&lt;b&gt;const&lt;/b&gt;" style="swimlane;fontStyle=0;childLayout=stackLayout;horizontal=1;startSize=26;fillColor=none;horizontalStack=0;resizeParent=1;resizeParentMax=0;resizeLast=0;collapsible=1;marginBottom=0;html=1;" vertex="1" parent="ggkkgFJlhI_n2AfVCItk-30">
          <mxGeometry x="35" y="270" width="140" height="52" as="geometry" />
        </mxCell>
        <mxCell id="ggkkgFJlhI_n2AfVCItk-35" value="user" style="text;strokeColor=none;fillColor=none;align=left;verticalAlign=top;spacingLeft=4;spacingRight=4;overflow=hidden;rotatable=0;points=[[0,0.5],[1,0.5]];portConstraint=eastwest;whiteSpace=wrap;html=1;" vertex="1" parent="ggkkgFJlhI_n2AfVCItk-34">
          <mxGeometry y="26" width="140" height="26" as="geometry" />
        </mxCell>
        <mxCell id="ggkkgFJlhI_n2AfVCItk-37" value="&lt;b&gt;useEffect&lt;br&gt;fetch API movies&lt;/b&gt;" style="swimlane;fontStyle=0;childLayout=stackLayout;horizontal=1;startSize=26;fillColor=none;horizontalStack=0;resizeParent=1;resizeParentMax=0;resizeLast=0;collapsible=1;marginBottom=0;html=1;" vertex="1" parent="ggkkgFJlhI_n2AfVCItk-30">
          <mxGeometry x="20" y="330" width="170" height="146" as="geometry" />
        </mxCell>
        <mxCell id="ggkkgFJlhI_n2AfVCItk-42" value="&lt;font color=&quot;#007fff&quot;&gt;&lt;b&gt;dispatch&lt;/b&gt;&lt;/font&gt;" style="swimlane;fontStyle=0;childLayout=stackLayout;horizontal=1;startSize=30;horizontalStack=0;resizeParent=1;resizeParentMax=0;resizeLast=0;collapsible=1;marginBottom=0;whiteSpace=wrap;html=1;" vertex="1" parent="ggkkgFJlhI_n2AfVCItk-37">
          <mxGeometry y="26" width="170" height="60" as="geometry" />
        </mxCell>
        <mxCell id="ggkkgFJlhI_n2AfVCItk-43" value="&lt;font color=&quot;#007fff&quot;&gt;&lt;b&gt;setMovies(moviesFromApi)&lt;/b&gt;&lt;/font&gt;" style="text;strokeColor=none;fillColor=none;align=left;verticalAlign=middle;spacingLeft=4;spacingRight=4;overflow=hidden;points=[[0,0.5],[1,0.5]];portConstraint=eastwest;rotatable=0;whiteSpace=wrap;html=1;" vertex="1" parent="ggkkgFJlhI_n2AfVCItk-42">
          <mxGeometry y="30" width="170" height="30" as="geometry" />
        </mxCell>
        <mxCell id="ggkkgFJlhI_n2AfVCItk-46" value="&lt;font color=&quot;#009900&quot;&gt;&lt;b&gt;dependencies&lt;/b&gt;&lt;/font&gt;" style="swimlane;fontStyle=0;childLayout=stackLayout;horizontal=1;startSize=30;horizontalStack=0;resizeParent=1;resizeParentMax=0;resizeLast=0;collapsible=1;marginBottom=0;whiteSpace=wrap;html=1;" vertex="1" parent="ggkkgFJlhI_n2AfVCItk-37">
          <mxGeometry y="86" width="170" height="60" as="geometry" />
        </mxCell>
        <mxCell id="ggkkgFJlhI_n2AfVCItk-47" value="&lt;font color=&quot;#009900&quot;&gt;&lt;b&gt;[]&lt;/b&gt;&lt;/font&gt;" style="text;strokeColor=none;fillColor=none;align=left;verticalAlign=middle;spacingLeft=4;spacingRight=4;overflow=hidden;points=[[0,0.5],[1,0.5]];portConstraint=eastwest;rotatable=0;whiteSpace=wrap;html=1;" vertex="1" parent="ggkkgFJlhI_n2AfVCItk-46">
          <mxGeometry y="30" width="170" height="30" as="geometry" />
        </mxCell>
        <mxCell id="ggkkgFJlhI_n2AfVCItk-48" value="&lt;b&gt;useEffect&lt;br&gt;similarMovies&lt;/b&gt;" style="swimlane;fontStyle=0;childLayout=stackLayout;horizontal=1;startSize=26;fillColor=none;horizontalStack=0;resizeParent=1;resizeParentMax=0;resizeLast=0;collapsible=1;marginBottom=0;html=1;" vertex="1" parent="ggkkgFJlhI_n2AfVCItk-30">
          <mxGeometry x="15" y="480" width="180" height="166" as="geometry" />
        </mxCell>
        <mxCell id="ggkkgFJlhI_n2AfVCItk-49" value="&lt;font color=&quot;#007fff&quot;&gt;&lt;b&gt;setState&lt;/b&gt;&lt;/font&gt;" style="swimlane;fontStyle=0;childLayout=stackLayout;horizontal=1;startSize=30;horizontalStack=0;resizeParent=1;resizeParentMax=0;resizeLast=0;collapsible=1;marginBottom=0;whiteSpace=wrap;html=1;" vertex="1" parent="ggkkgFJlhI_n2AfVCItk-48">
          <mxGeometry y="26" width="180" height="60" as="geometry" />
        </mxCell>
        <mxCell id="ggkkgFJlhI_n2AfVCItk-50" value="&lt;font color=&quot;#007fff&quot;&gt;&lt;b&gt;setSimilarMovies(similarMovies)&lt;/b&gt;&lt;/font&gt;" style="text;strokeColor=none;fillColor=none;align=left;verticalAlign=middle;spacingLeft=4;spacingRight=4;overflow=hidden;points=[[0,0.5],[1,0.5]];portConstraint=eastwest;rotatable=0;whiteSpace=wrap;html=1;" vertex="1" parent="ggkkgFJlhI_n2AfVCItk-49">
          <mxGeometry y="30" width="180" height="30" as="geometry" />
        </mxCell>
        <mxCell id="ggkkgFJlhI_n2AfVCItk-51" value="&lt;font color=&quot;#009900&quot;&gt;&lt;b&gt;dependencies&lt;/b&gt;&lt;/font&gt;" style="swimlane;fontStyle=0;childLayout=stackLayout;horizontal=1;startSize=30;horizontalStack=0;resizeParent=1;resizeParentMax=0;resizeLast=0;collapsible=1;marginBottom=0;whiteSpace=wrap;html=1;" vertex="1" parent="ggkkgFJlhI_n2AfVCItk-48">
          <mxGeometry y="86" width="180" height="80" as="geometry" />
        </mxCell>
        <mxCell id="ggkkgFJlhI_n2AfVCItk-53" value="&lt;font color=&quot;#009900&quot;&gt;&lt;b&gt;selectedMovie&lt;/b&gt;&lt;br&gt;&lt;/font&gt;" style="text;strokeColor=none;fillColor=none;align=left;verticalAlign=middle;spacingLeft=4;spacingRight=4;overflow=hidden;points=[[0,0.5],[1,0.5]];portConstraint=eastwest;rotatable=0;whiteSpace=wrap;html=1;" vertex="1" parent="ggkkgFJlhI_n2AfVCItk-51">
          <mxGeometry y="30" width="180" height="50" as="geometry" />
        </mxCell>
        <mxCell id="ggkkgFJlhI_n2AfVCItk-80" value="&lt;b&gt;useEffect&lt;br&gt;favoriteMovies&lt;/b&gt;" style="swimlane;fontStyle=0;childLayout=stackLayout;horizontal=1;startSize=26;fillColor=none;horizontalStack=0;resizeParent=1;resizeParentMax=0;resizeLast=0;collapsible=1;marginBottom=0;html=1;" vertex="1" parent="ggkkgFJlhI_n2AfVCItk-30">
          <mxGeometry x="15" y="650" width="180" height="146" as="geometry" />
        </mxCell>
        <mxCell id="ggkkgFJlhI_n2AfVCItk-81" value="&lt;font color=&quot;#007fff&quot;&gt;&lt;b&gt;dispatch&lt;/b&gt;&lt;/font&gt;" style="swimlane;fontStyle=0;childLayout=stackLayout;horizontal=1;startSize=30;horizontalStack=0;resizeParent=1;resizeParentMax=0;resizeLast=0;collapsible=1;marginBottom=0;whiteSpace=wrap;html=1;" vertex="1" parent="ggkkgFJlhI_n2AfVCItk-80">
          <mxGeometry y="26" width="180" height="60" as="geometry" />
        </mxCell>
        <mxCell id="ggkkgFJlhI_n2AfVCItk-82" value="&lt;font color=&quot;#007fff&quot;&gt;setFavoriteMovies(favoriteMovies)&lt;/font&gt;" style="text;strokeColor=none;fillColor=none;align=left;verticalAlign=middle;spacingLeft=4;spacingRight=4;overflow=hidden;points=[[0,0.5],[1,0.5]];portConstraint=eastwest;rotatable=0;whiteSpace=wrap;html=1;" vertex="1" parent="ggkkgFJlhI_n2AfVCItk-81">
          <mxGeometry y="30" width="180" height="30" as="geometry" />
        </mxCell>
        <mxCell id="ggkkgFJlhI_n2AfVCItk-83" value="&lt;font color=&quot;#009900&quot;&gt;&lt;b&gt;dependencies&lt;/b&gt;&lt;/font&gt;" style="swimlane;fontStyle=0;childLayout=stackLayout;horizontal=1;startSize=30;horizontalStack=0;resizeParent=1;resizeParentMax=0;resizeLast=0;collapsible=1;marginBottom=0;whiteSpace=wrap;html=1;" vertex="1" parent="ggkkgFJlhI_n2AfVCItk-80">
          <mxGeometry y="86" width="180" height="60" as="geometry" />
        </mxCell>
        <mxCell id="ggkkgFJlhI_n2AfVCItk-84" value="&lt;font color=&quot;#009900&quot;&gt;&lt;b&gt;user&lt;br&gt;movies&lt;/b&gt;&lt;br&gt;&lt;/font&gt;" style="text;strokeColor=none;fillColor=none;align=left;verticalAlign=middle;spacingLeft=4;spacingRight=4;overflow=hidden;points=[[0,0.5],[1,0.5]];portConstraint=eastwest;rotatable=0;whiteSpace=wrap;html=1;" vertex="1" parent="ggkkgFJlhI_n2AfVCItk-83">
          <mxGeometry y="30" width="180" height="30" as="geometry" />
        </mxCell>
        <mxCell id="ggkkgFJlhI_n2AfVCItk-87" value="&lt;b&gt;&lt;font color=&quot;#ff00ff&quot;&gt;render()&lt;/font&gt;&lt;/b&gt;" style="swimlane;fontStyle=0;childLayout=stackLayout;horizontal=1;startSize=30;fillColor=none;horizontalStack=0;resizeParent=1;resizeParentMax=0;resizeLast=0;collapsible=1;marginBottom=0;html=1;" vertex="1" parent="ggkkgFJlhI_n2AfVCItk-30">
          <mxGeometry y="800" width="210" height="264" as="geometry" />
        </mxCell>
        <mxCell id="ggkkgFJlhI_n2AfVCItk-89" value="&lt;b&gt;&lt;font color=&quot;#ff00ff&quot;&gt;&amp;lt;NavigationBar /&amp;gt;&lt;/font&gt;&lt;/b&gt;" style="text;strokeColor=none;fillColor=none;align=center;verticalAlign=middle;spacingLeft=4;spacingRight=4;overflow=hidden;points=[[0,0.5],[1,0.5]];portConstraint=eastwest;rotatable=0;whiteSpace=wrap;html=1;" vertex="1" parent="ggkkgFJlhI_n2AfVCItk-87">
          <mxGeometry y="30" width="210" height="30" as="geometry" />
        </mxCell>
        <mxCell id="ggkkgFJlhI_n2AfVCItk-241" value="&lt;b&gt;&lt;font color=&quot;#ff00ff&quot;&gt;&amp;lt;LoginView /&amp;gt;&lt;/font&gt;&lt;/b&gt;" style="text;strokeColor=none;fillColor=none;align=center;verticalAlign=middle;spacingLeft=4;spacingRight=4;overflow=hidden;points=[[0,0.5],[1,0.5]];portConstraint=eastwest;rotatable=0;whiteSpace=wrap;html=1;" vertex="1" parent="ggkkgFJlhI_n2AfVCItk-87">
          <mxGeometry y="60" width="210" height="30" as="geometry" />
        </mxCell>
        <mxCell id="ggkkgFJlhI_n2AfVCItk-242" value="&lt;b&gt;&lt;font color=&quot;#ff00ff&quot;&gt;&amp;lt;SignupView /&amp;gt;&lt;/font&gt;&lt;/b&gt;" style="text;strokeColor=none;fillColor=none;align=center;verticalAlign=middle;spacingLeft=4;spacingRight=4;overflow=hidden;points=[[0,0.5],[1,0.5]];portConstraint=eastwest;rotatable=0;whiteSpace=wrap;html=1;" vertex="1" parent="ggkkgFJlhI_n2AfVCItk-87">
          <mxGeometry y="90" width="210" height="30" as="geometry" />
        </mxCell>
        <mxCell id="ggkkgFJlhI_n2AfVCItk-243" value="&lt;font style=&quot;font-weight: bold;&quot; color=&quot;#ff00ff&quot;&gt;&amp;lt;MovieView /&amp;gt; &lt;/font&gt;&lt;br&gt;AND for each similar movies&lt;br&gt;&lt;font style=&quot;font-weight: bold;&quot; color=&quot;#ff00ff&quot;&gt;&amp;lt;MovieCard movie={movie}/&amp;gt;&lt;/font&gt;" style="text;strokeColor=none;fillColor=none;align=center;verticalAlign=middle;spacingLeft=4;spacingRight=4;overflow=hidden;points=[[0,0.5],[1,0.5]];portConstraint=eastwest;rotatable=0;whiteSpace=wrap;html=1;" vertex="1" parent="ggkkgFJlhI_n2AfVCItk-87">
          <mxGeometry y="120" width="210" height="64" as="geometry" />
        </mxCell>
        <mxCell id="ggkkgFJlhI_n2AfVCItk-244" value="&lt;b&gt;&lt;font color=&quot;#ff00ff&quot;&gt;&amp;lt;MovieList /&amp;gt;&lt;/font&gt;&lt;/b&gt;" style="text;strokeColor=none;fillColor=none;align=center;verticalAlign=middle;spacingLeft=4;spacingRight=4;overflow=hidden;points=[[0,0.5],[1,0.5]];portConstraint=eastwest;rotatable=0;whiteSpace=wrap;html=1;" vertex="1" parent="ggkkgFJlhI_n2AfVCItk-87">
          <mxGeometry y="184" width="210" height="30" as="geometry" />
        </mxCell>
        <mxCell id="ggkkgFJlhI_n2AfVCItk-245" value="&lt;font style=&quot;border-color: var(--border-color); font-weight: bold;&quot; color=&quot;#ff00ff&quot;&gt;&amp;lt;ProfileView /&amp;gt;&lt;/font&gt;&lt;br style=&quot;border-color: var(--border-color);&quot;&gt;AND for each favorite movies&lt;br style=&quot;border-color: var(--border-color);&quot;&gt;&lt;font style=&quot;border-color: var(--border-color); font-weight: bold;&quot; color=&quot;#ff00ff&quot;&gt;&amp;lt;MovieCard movie={movie}/&amp;gt;&lt;/font&gt;" style="text;strokeColor=none;fillColor=none;align=center;verticalAlign=middle;spacingLeft=4;spacingRight=4;overflow=hidden;points=[[0,0.5],[1,0.5]];portConstraint=eastwest;rotatable=0;whiteSpace=wrap;html=1;" vertex="1" parent="ggkkgFJlhI_n2AfVCItk-87">
          <mxGeometry y="214" width="210" height="50" as="geometry" />
        </mxCell>
        <mxCell id="ggkkgFJlhI_n2AfVCItk-25" value="&lt;font color=&quot;#007fff&quot;&gt;&lt;b&gt;useSelector&lt;/b&gt;&lt;/font&gt;" style="swimlane;fontStyle=0;childLayout=stackLayout;horizontal=1;startSize=26;fillColor=none;horizontalStack=0;resizeParent=1;resizeParentMax=0;resizeLast=0;collapsible=1;marginBottom=0;html=1;" vertex="1" parent="ggkkgFJlhI_n2AfVCItk-30">
          <mxGeometry x="35" y="100" width="140" height="100" as="geometry" />
        </mxCell>
        <mxCell id="ggkkgFJlhI_n2AfVCItk-26" value="&lt;font color=&quot;#007fff&quot;&gt;&lt;b&gt;movies&lt;br&gt;selectedMovie&lt;br&gt;favoriteMovies&lt;br&gt;user&amp;nbsp;&lt;/b&gt;&lt;/font&gt;" style="text;strokeColor=none;fillColor=none;align=left;verticalAlign=top;spacingLeft=4;spacingRight=4;overflow=hidden;rotatable=0;points=[[0,0.5],[1,0.5]];portConstraint=eastwest;whiteSpace=wrap;html=1;" vertex="1" parent="ggkkgFJlhI_n2AfVCItk-25">
          <mxGeometry y="26" width="140" height="74" as="geometry" />
        </mxCell>
        <mxCell id="ggkkgFJlhI_n2AfVCItk-21" value="&lt;b&gt;&lt;font color=&quot;#990099&quot;&gt;states&lt;/font&gt;&lt;/b&gt;" style="swimlane;fontStyle=0;childLayout=stackLayout;horizontal=1;startSize=26;fillColor=none;horizontalStack=0;resizeParent=1;resizeParentMax=0;resizeLast=0;collapsible=1;marginBottom=0;html=1;" vertex="1" parent="ggkkgFJlhI_n2AfVCItk-30">
          <mxGeometry x="35" y="210" width="140" height="52" as="geometry" />
        </mxCell>
        <mxCell id="ggkkgFJlhI_n2AfVCItk-22" value="&lt;font color=&quot;#990099&quot;&gt;&lt;b&gt;similarMovies&lt;/b&gt;&lt;/font&gt;" style="text;strokeColor=none;fillColor=none;align=left;verticalAlign=top;spacingLeft=4;spacingRight=4;overflow=hidden;rotatable=0;points=[[0,0.5],[1,0.5]];portConstraint=eastwest;whiteSpace=wrap;html=1;" vertex="1" parent="ggkkgFJlhI_n2AfVCItk-21">
          <mxGeometry y="26" width="140" height="26" as="geometry" />
        </mxCell>
        <mxCell id="ggkkgFJlhI_n2AfVCItk-99" style="edgeStyle=orthogonalEdgeStyle;rounded=0;orthogonalLoop=1;jettySize=auto;html=1;entryX=0.5;entryY=1;entryDx=0;entryDy=0;" edge="1" parent="1" source="ggkkgFJlhI_n2AfVCItk-89" target="ggkkgFJlhI_n2AfVCItk-10">
          <mxGeometry relative="1" as="geometry">
            <mxPoint x="430" y="770" as="targetPoint" />
            <mxPoint x="115" y="1120" as="sourcePoint" />
            <Array as="points">
              <mxPoint x="240" y="1000" />
              <mxPoint x="240" y="690" />
              <mxPoint x="435" y="690" />
            </Array>
          </mxGeometry>
        </mxCell>
        <mxCell id="ggkkgFJlhI_n2AfVCItk-164" value="&lt;b style=&quot;border-color: var(--border-color);&quot;&gt;Signup&lt;/b&gt;" style="swimlane;whiteSpace=wrap;html=1;fillColor=#FFFF00;" vertex="1" parent="1">
          <mxGeometry x="610" y="510" width="230" height="440" as="geometry" />
        </mxCell>
        <mxCell id="ggkkgFJlhI_n2AfVCItk-151" value="&lt;b&gt;&lt;font color=&quot;#cc0000&quot;&gt;handleSubmit&lt;/font&gt;&lt;br&gt;&lt;/b&gt;" style="swimlane;fontStyle=0;childLayout=stackLayout;horizontal=1;startSize=26;fillColor=#E6E6E6;horizontalStack=0;resizeParent=1;resizeParentMax=0;resizeLast=0;collapsible=1;marginBottom=0;html=1;strokeColor=#000000;" vertex="1" parent="ggkkgFJlhI_n2AfVCItk-164">
          <mxGeometry x="15" y="160" width="200" height="206" as="geometry" />
        </mxCell>
        <mxCell id="ggkkgFJlhI_n2AfVCItk-154" value="&lt;b style=&quot;&quot;&gt;Fetch (&lt;font color=&quot;#ff3333&quot;&gt;no useEffect?!?&lt;/font&gt;)&lt;/b&gt;" style="swimlane;fontStyle=0;childLayout=stackLayout;horizontal=1;startSize=30;horizontalStack=0;resizeParent=1;resizeParentMax=0;resizeLast=0;collapsible=1;marginBottom=0;whiteSpace=wrap;html=1;" vertex="1" parent="ggkkgFJlhI_n2AfVCItk-151">
          <mxGeometry y="26" width="200" height="60" as="geometry" />
        </mxCell>
        <mxCell id="ggkkgFJlhI_n2AfVCItk-155" value="POST Create new user&lt;br&gt;POST Login new user" style="text;strokeColor=none;fillColor=none;align=left;verticalAlign=middle;spacingLeft=4;spacingRight=4;overflow=hidden;points=[[0,0.5],[1,0.5]];portConstraint=eastwest;rotatable=0;whiteSpace=wrap;html=1;" vertex="1" parent="ggkkgFJlhI_n2AfVCItk-154">
          <mxGeometry y="30" width="200" height="30" as="geometry" />
        </mxCell>
        <mxCell id="ggkkgFJlhI_n2AfVCItk-159" value="&lt;b style=&quot;border-color: var(--border-color); color: rgb(0, 127, 255);&quot;&gt;dispatch&lt;/b&gt;" style="swimlane;fontStyle=0;childLayout=stackLayout;horizontal=1;startSize=30;horizontalStack=0;resizeParent=1;resizeParentMax=0;resizeLast=0;collapsible=1;marginBottom=0;whiteSpace=wrap;html=1;" vertex="1" parent="ggkkgFJlhI_n2AfVCItk-151">
          <mxGeometry y="86" width="200" height="60" as="geometry" />
        </mxCell>
        <mxCell id="ggkkgFJlhI_n2AfVCItk-160" value="&lt;font color=&quot;#007fff&quot;&gt;&lt;b&gt;user&lt;/b&gt;&lt;/font&gt;" style="text;strokeColor=none;fillColor=none;align=left;verticalAlign=middle;spacingLeft=4;spacingRight=4;overflow=hidden;points=[[0,0.5],[1,0.5]];portConstraint=eastwest;rotatable=0;whiteSpace=wrap;html=1;" vertex="1" parent="ggkkgFJlhI_n2AfVCItk-159">
          <mxGeometry y="30" width="200" height="30" as="geometry" />
        </mxCell>
        <mxCell id="ggkkgFJlhI_n2AfVCItk-161" value="&lt;b style=&quot;border-color: var(--border-color);&quot;&gt;&lt;font color=&quot;#ff8000&quot;&gt;set localStorage&lt;/font&gt;&lt;/b&gt;" style="swimlane;fontStyle=0;childLayout=stackLayout;horizontal=1;startSize=30;horizontalStack=0;resizeParent=1;resizeParentMax=0;resizeLast=0;collapsible=1;marginBottom=0;whiteSpace=wrap;html=1;" vertex="1" parent="ggkkgFJlhI_n2AfVCItk-151">
          <mxGeometry y="146" width="200" height="60" as="geometry" />
        </mxCell>
        <mxCell id="ggkkgFJlhI_n2AfVCItk-163" value="&lt;font color=&quot;#ff8000&quot;&gt;&lt;b&gt;token&amp;nbsp;&lt;br&gt;&lt;/b&gt;&lt;/font&gt;&lt;b style=&quot;border-color: var(--border-color); color: rgb(255, 51, 51);&quot;&gt;no user ?!?&lt;/b&gt;" style="text;strokeColor=none;fillColor=none;align=left;verticalAlign=middle;spacingLeft=4;spacingRight=4;overflow=hidden;points=[[0,0.5],[1,0.5]];portConstraint=eastwest;rotatable=0;whiteSpace=wrap;html=1;" vertex="1" parent="ggkkgFJlhI_n2AfVCItk-161">
          <mxGeometry y="30" width="200" height="30" as="geometry" />
        </mxCell>
        <mxCell id="ggkkgFJlhI_n2AfVCItk-152" value="&lt;font color=&quot;#007fff&quot;&gt;&lt;b&gt;setState&lt;/b&gt;&lt;/font&gt;" style="swimlane;fontStyle=0;childLayout=stackLayout;horizontal=1;startSize=30;horizontalStack=0;resizeParent=1;resizeParentMax=0;resizeLast=0;collapsible=1;marginBottom=0;whiteSpace=wrap;html=1;" vertex="1" parent="ggkkgFJlhI_n2AfVCItk-164">
          <mxGeometry x="20" y="31" width="190" height="120" as="geometry" />
        </mxCell>
        <mxCell id="ggkkgFJlhI_n2AfVCItk-158" value="&lt;ul&gt;&lt;li&gt;&lt;font color=&quot;#007fff&quot;&gt;firstname&lt;/font&gt;&lt;/li&gt;&lt;li&gt;&lt;font color=&quot;#007fff&quot;&gt;lastname&lt;/font&gt;&lt;/li&gt;&lt;li&gt;&lt;font color=&quot;#007fff&quot;&gt;email&lt;/font&gt;&lt;/li&gt;&lt;li&gt;&lt;font color=&quot;#007fff&quot;&gt;password&lt;/font&gt;&lt;/li&gt;&lt;li&gt;&lt;font color=&quot;#007fff&quot;&gt;birthdate&lt;/font&gt;&lt;/li&gt;&lt;/ul&gt;" style="text;strokeColor=none;fillColor=none;html=1;whiteSpace=wrap;verticalAlign=middle;overflow=hidden;" vertex="1" parent="ggkkgFJlhI_n2AfVCItk-152">
          <mxGeometry y="30" width="190" height="90" as="geometry" />
        </mxCell>
        <mxCell id="ggkkgFJlhI_n2AfVCItk-310" value="&lt;b&gt;&lt;font color=&quot;#ff00ff&quot;&gt;Render()&lt;/font&gt;&lt;/b&gt;" style="swimlane;fontStyle=0;childLayout=stackLayout;horizontal=1;startSize=26;fillColor=#E6E6E6;horizontalStack=0;resizeParent=1;resizeParentMax=0;resizeLast=0;collapsible=1;marginBottom=0;html=1;" vertex="1" parent="ggkkgFJlhI_n2AfVCItk-164">
          <mxGeometry x="17.505000000000006" y="370" width="195" height="60" as="geometry" />
        </mxCell>
        <mxCell id="ggkkgFJlhI_n2AfVCItk-311" value="&lt;b style=&quot;&quot;&gt;&lt;font color=&quot;#ff00ff&quot;&gt;&amp;lt;Form/&amp;gt;&lt;/font&gt;&lt;/b&gt;" style="swimlane;fontStyle=0;childLayout=stackLayout;horizontal=1;startSize=30;horizontalStack=0;resizeParent=1;resizeParentMax=0;resizeLast=0;collapsible=1;marginBottom=0;whiteSpace=wrap;html=1;" vertex="1" parent="ggkkgFJlhI_n2AfVCItk-310">
          <mxGeometry y="26" width="195" height="34" as="geometry" />
        </mxCell>
        <mxCell id="ggkkgFJlhI_n2AfVCItk-165" value="&lt;b style=&quot;border-color: var(--border-color);&quot;&gt;Login&lt;/b&gt;" style="swimlane;whiteSpace=wrap;html=1;fillColor=#FFFF00;" vertex="1" parent="1">
          <mxGeometry x="260" y="720" width="240" height="280" as="geometry" />
        </mxCell>
        <mxCell id="ggkkgFJlhI_n2AfVCItk-166" value="&lt;b&gt;&lt;font color=&quot;#cc0000&quot;&gt;handleSubmit&lt;/font&gt;&lt;br&gt;&lt;/b&gt;" style="swimlane;fontStyle=0;childLayout=stackLayout;horizontal=1;startSize=26;fillColor=#E6E6E6;horizontalStack=0;resizeParent=1;resizeParentMax=0;resizeLast=0;collapsible=1;marginBottom=0;html=1;strokeColor=#000000;" vertex="1" parent="ggkkgFJlhI_n2AfVCItk-165">
          <mxGeometry y="100" width="240" height="176" as="geometry" />
        </mxCell>
        <mxCell id="ggkkgFJlhI_n2AfVCItk-144" value="&lt;b style=&quot;border-color: var(--border-color); text-align: center;&quot;&gt;Fetch (&lt;font style=&quot;border-color: var(--border-color);&quot; color=&quot;#ff3333&quot;&gt;no useEffect?!?&lt;/font&gt;)&lt;/b&gt;" style="text;strokeColor=none;fillColor=none;align=left;verticalAlign=middle;spacingLeft=4;spacingRight=4;overflow=hidden;points=[[0,0.5],[1,0.5]];portConstraint=eastwest;rotatable=0;whiteSpace=wrap;html=1;" vertex="1" parent="ggkkgFJlhI_n2AfVCItk-166">
          <mxGeometry y="26" width="240" height="30" as="geometry" />
        </mxCell>
        <mxCell id="ggkkgFJlhI_n2AfVCItk-107" value="&lt;b style=&quot;border-color: var(--border-color);&quot;&gt;&lt;font color=&quot;#ff8000&quot;&gt;set localStorage&lt;/font&gt;&lt;/b&gt;" style="swimlane;fontStyle=0;childLayout=stackLayout;horizontal=1;startSize=30;horizontalStack=0;resizeParent=1;resizeParentMax=0;resizeLast=0;collapsible=1;marginBottom=0;whiteSpace=wrap;html=1;" vertex="1" parent="ggkkgFJlhI_n2AfVCItk-166">
          <mxGeometry y="56" width="240" height="60" as="geometry" />
        </mxCell>
        <mxCell id="ggkkgFJlhI_n2AfVCItk-150" value="&lt;font color=&quot;#ff8000&quot;&gt;&lt;b&gt;user&lt;br&gt;&lt;/b&gt;&lt;/font&gt;&lt;b style=&quot;border-color: var(--border-color); color: rgb(255, 128, 0);&quot;&gt;token&lt;/b&gt;&lt;font color=&quot;#ff8000&quot;&gt;&lt;b&gt;&lt;br&gt;&lt;/b&gt;&lt;/font&gt;" style="text;strokeColor=none;fillColor=none;align=left;verticalAlign=middle;spacingLeft=4;spacingRight=4;overflow=hidden;points=[[0,0.5],[1,0.5]];portConstraint=eastwest;rotatable=0;whiteSpace=wrap;html=1;" vertex="1" parent="ggkkgFJlhI_n2AfVCItk-107">
          <mxGeometry y="30" width="240" height="30" as="geometry" />
        </mxCell>
        <mxCell id="ggkkgFJlhI_n2AfVCItk-172" value="&lt;b style=&quot;border-color: var(--border-color); color: rgb(0, 127, 255);&quot;&gt;dispatch&lt;/b&gt;" style="swimlane;fontStyle=0;childLayout=stackLayout;horizontal=1;startSize=30;horizontalStack=0;resizeParent=1;resizeParentMax=0;resizeLast=0;collapsible=1;marginBottom=0;whiteSpace=wrap;html=1;" vertex="1" parent="ggkkgFJlhI_n2AfVCItk-166">
          <mxGeometry y="116" width="240" height="60" as="geometry" />
        </mxCell>
        <mxCell id="ggkkgFJlhI_n2AfVCItk-173" value="&lt;font color=&quot;#007fff&quot;&gt;&lt;b&gt;user&lt;/b&gt;&lt;/font&gt;" style="text;strokeColor=none;fillColor=none;align=left;verticalAlign=middle;spacingLeft=4;spacingRight=4;overflow=hidden;points=[[0,0.5],[1,0.5]];portConstraint=eastwest;rotatable=0;whiteSpace=wrap;html=1;" vertex="1" parent="ggkkgFJlhI_n2AfVCItk-172">
          <mxGeometry y="30" width="240" height="30" as="geometry" />
        </mxCell>
        <mxCell id="ggkkgFJlhI_n2AfVCItk-105" value="&lt;font color=&quot;#007fff&quot;&gt;&lt;b&gt;useState&lt;/b&gt;&lt;/font&gt;" style="swimlane;fontStyle=0;childLayout=stackLayout;horizontal=1;startSize=20;horizontalStack=0;resizeParent=1;resizeParentMax=0;resizeLast=0;collapsible=1;marginBottom=0;whiteSpace=wrap;html=1;" vertex="1" parent="ggkkgFJlhI_n2AfVCItk-165">
          <mxGeometry x="15" y="30" width="210" height="60" as="geometry" />
        </mxCell>
        <mxCell id="ggkkgFJlhI_n2AfVCItk-106" value="&lt;font color=&quot;#007fff&quot;&gt;&lt;b&gt;username&lt;br&gt;&lt;/b&gt;&lt;/font&gt;&lt;b style=&quot;border-color: var(--border-color); color: rgb(0, 127, 255);&quot;&gt;password&lt;/b&gt;&lt;font color=&quot;#007fff&quot;&gt;&lt;b&gt;&lt;br&gt;&lt;/b&gt;&lt;/font&gt;" style="text;strokeColor=none;fillColor=none;align=left;verticalAlign=middle;spacingLeft=4;spacingRight=4;overflow=hidden;points=[[0,0.5],[1,0.5]];portConstraint=eastwest;rotatable=0;whiteSpace=wrap;html=1;" vertex="1" parent="ggkkgFJlhI_n2AfVCItk-105">
          <mxGeometry y="20" width="210" height="40" as="geometry" />
        </mxCell>
        <mxCell id="ggkkgFJlhI_n2AfVCItk-178" value="&lt;b style=&quot;border-color: var(--border-color);&quot;&gt;MovieView&lt;/b&gt;" style="swimlane;whiteSpace=wrap;html=1;fillColor=#FFFF00;" vertex="1" parent="1">
          <mxGeometry x="560" y="970" width="280" height="1040" as="geometry" />
        </mxCell>
        <mxCell id="ggkkgFJlhI_n2AfVCItk-181" value="&lt;b style=&quot;border-color: var(--border-color);&quot;&gt;&lt;font color=&quot;#ff8000&quot;&gt;get localStorage&lt;/font&gt;&lt;/b&gt;" style="swimlane;fontStyle=0;childLayout=stackLayout;horizontal=1;startSize=30;horizontalStack=0;resizeParent=1;resizeParentMax=0;resizeLast=0;collapsible=1;marginBottom=0;whiteSpace=wrap;html=1;" vertex="1" parent="ggkkgFJlhI_n2AfVCItk-178">
          <mxGeometry x="34.38" y="30" width="210" height="60" as="geometry" />
        </mxCell>
        <mxCell id="ggkkgFJlhI_n2AfVCItk-182" value="&lt;b style=&quot;border-color: var(--border-color); color: rgb(255, 128, 0);&quot;&gt;storedUser&lt;/b&gt;&lt;font color=&quot;#ff8000&quot;&gt;&lt;b&gt;&lt;br&gt;Token&lt;/b&gt;&lt;br&gt;&lt;/font&gt;" style="text;strokeColor=none;fillColor=none;align=left;verticalAlign=middle;spacingLeft=4;spacingRight=4;overflow=hidden;points=[[0,0.5],[1,0.5]];portConstraint=eastwest;rotatable=0;whiteSpace=wrap;html=1;" vertex="1" parent="ggkkgFJlhI_n2AfVCItk-181">
          <mxGeometry y="30" width="210" height="30" as="geometry" />
        </mxCell>
        <mxCell id="ggkkgFJlhI_n2AfVCItk-184" value="&lt;font color=&quot;#007fff&quot;&gt;&lt;b&gt;useSelector&lt;/b&gt;&lt;/font&gt;" style="swimlane;fontStyle=0;childLayout=stackLayout;horizontal=1;startSize=26;fillColor=none;horizontalStack=0;resizeParent=1;resizeParentMax=0;resizeLast=0;collapsible=1;marginBottom=0;html=1;" vertex="1" parent="ggkkgFJlhI_n2AfVCItk-178">
          <mxGeometry x="69.38" y="100" width="140" height="100" as="geometry" />
        </mxCell>
        <mxCell id="ggkkgFJlhI_n2AfVCItk-185" value="&lt;font color=&quot;#007fff&quot;&gt;&lt;b&gt;movies&lt;br&gt;favoriteMovies&lt;br&gt;selectedMovies&lt;br&gt;user&lt;/b&gt;&lt;br&gt;&lt;/font&gt;" style="text;strokeColor=none;fillColor=none;align=left;verticalAlign=top;spacingLeft=4;spacingRight=4;overflow=hidden;rotatable=0;points=[[0,0.5],[1,0.5]];portConstraint=eastwest;whiteSpace=wrap;html=1;" vertex="1" parent="ggkkgFJlhI_n2AfVCItk-184">
          <mxGeometry y="26" width="140" height="74" as="geometry" />
        </mxCell>
        <mxCell id="ggkkgFJlhI_n2AfVCItk-191" value="&lt;b&gt;&lt;font color=&quot;#990099&quot;&gt;states init&lt;/font&gt;&lt;/b&gt;" style="swimlane;fontStyle=0;childLayout=stackLayout;horizontal=1;startSize=26;fillColor=none;horizontalStack=0;resizeParent=1;resizeParentMax=0;resizeLast=0;collapsible=1;marginBottom=0;html=1;" vertex="1" parent="ggkkgFJlhI_n2AfVCItk-178">
          <mxGeometry x="69.99999999999999" y="210" width="140" height="52" as="geometry" />
        </mxCell>
        <mxCell id="ggkkgFJlhI_n2AfVCItk-192" value="&lt;font color=&quot;#990099&quot;&gt;&lt;b&gt;favorited&lt;/b&gt;&lt;/font&gt;" style="text;strokeColor=none;fillColor=none;align=left;verticalAlign=top;spacingLeft=4;spacingRight=4;overflow=hidden;rotatable=0;points=[[0,0.5],[1,0.5]];portConstraint=eastwest;whiteSpace=wrap;html=1;" vertex="1" parent="ggkkgFJlhI_n2AfVCItk-191">
          <mxGeometry y="26" width="140" height="26" as="geometry" />
        </mxCell>
        <mxCell id="ggkkgFJlhI_n2AfVCItk-193" value="&lt;b&gt;useEffect&lt;br&gt;isFavorited&lt;/b&gt;" style="swimlane;fontStyle=0;childLayout=stackLayout;horizontal=1;startSize=26;fillColor=none;horizontalStack=0;resizeParent=1;resizeParentMax=0;resizeLast=0;collapsible=1;marginBottom=0;html=1;" vertex="1" parent="ggkkgFJlhI_n2AfVCItk-178">
          <mxGeometry x="8.74" y="370" width="258.75" height="212" as="geometry" />
        </mxCell>
        <mxCell id="ggkkgFJlhI_n2AfVCItk-201" value="&lt;div style=&quot;text-align: center;&quot;&gt;&lt;b style=&quot;background-color: initial;&quot;&gt;&lt;font color=&quot;#cc0000&quot;&gt;isFavorited&lt;/font&gt;&lt;/b&gt;&lt;/div&gt;&lt;div style=&quot;text-align: center;&quot;&gt;&lt;span style=&quot;background-color: initial;&quot;&gt;Function that Checks if movie received is in the list of favoritedMovies&lt;/span&gt;&lt;/div&gt;" style="text;strokeColor=none;fillColor=#E6E6E6;align=left;verticalAlign=top;spacingLeft=4;spacingRight=4;overflow=hidden;rotatable=0;points=[[0,0.5],[1,0.5]];portConstraint=eastwest;whiteSpace=wrap;html=1;" vertex="1" parent="ggkkgFJlhI_n2AfVCItk-193">
          <mxGeometry y="26" width="258.75" height="74" as="geometry" />
        </mxCell>
        <mxCell id="ggkkgFJlhI_n2AfVCItk-199" value="&lt;b&gt;&lt;font color=&quot;#990099&quot;&gt;set States&lt;/font&gt;&lt;/b&gt;" style="swimlane;fontStyle=0;childLayout=stackLayout;horizontal=1;startSize=26;fillColor=none;horizontalStack=0;resizeParent=1;resizeParentMax=0;resizeLast=0;collapsible=1;marginBottom=0;html=1;" vertex="1" parent="ggkkgFJlhI_n2AfVCItk-193">
          <mxGeometry y="100" width="258.75" height="52" as="geometry" />
        </mxCell>
        <mxCell id="ggkkgFJlhI_n2AfVCItk-200" value="&lt;font color=&quot;#990099&quot;&gt;&lt;b&gt;setFavorited = isFavorited(favoriteMovies)&lt;/b&gt;&lt;/font&gt;" style="text;strokeColor=none;fillColor=none;align=left;verticalAlign=top;spacingLeft=4;spacingRight=4;overflow=hidden;rotatable=0;points=[[0,0.5],[1,0.5]];portConstraint=eastwest;whiteSpace=wrap;html=1;" vertex="1" parent="ggkkgFJlhI_n2AfVCItk-199">
          <mxGeometry y="26" width="258.75" height="26" as="geometry" />
        </mxCell>
        <mxCell id="ggkkgFJlhI_n2AfVCItk-196" value="&lt;font color=&quot;#009900&quot;&gt;&lt;b&gt;dependencies???&lt;/b&gt;&lt;/font&gt;" style="swimlane;fontStyle=0;childLayout=stackLayout;horizontal=1;startSize=30;horizontalStack=0;resizeParent=1;resizeParentMax=0;resizeLast=0;collapsible=1;marginBottom=0;whiteSpace=wrap;html=1;" vertex="1" parent="ggkkgFJlhI_n2AfVCItk-193">
          <mxGeometry y="152" width="258.75" height="60" as="geometry" />
        </mxCell>
        <mxCell id="ggkkgFJlhI_n2AfVCItk-197" value="&lt;font color=&quot;#009900&quot;&gt;&lt;br&gt;&lt;/font&gt;" style="text;strokeColor=none;fillColor=none;align=left;verticalAlign=middle;spacingLeft=4;spacingRight=4;overflow=hidden;points=[[0,0.5],[1,0.5]];portConstraint=eastwest;rotatable=0;whiteSpace=wrap;html=1;" vertex="1" parent="ggkkgFJlhI_n2AfVCItk-196">
          <mxGeometry y="30" width="258.75" height="30" as="geometry" />
        </mxCell>
        <mxCell id="ggkkgFJlhI_n2AfVCItk-208" value="&lt;b&gt;&lt;font color=&quot;#cc0000&quot;&gt;addFavorite&lt;/font&gt;&lt;br&gt;&lt;/b&gt;" style="swimlane;fontStyle=0;childLayout=stackLayout;horizontal=1;startSize=26;fillColor=#E6E6E6;horizontalStack=0;resizeParent=1;resizeParentMax=0;resizeLast=0;collapsible=1;marginBottom=0;html=1;strokeColor=#000000;" vertex="1" parent="ggkkgFJlhI_n2AfVCItk-178">
          <mxGeometry x="9.99" y="590" width="257.5" height="176" as="geometry" />
        </mxCell>
        <mxCell id="ggkkgFJlhI_n2AfVCItk-209" value="&lt;b style=&quot;border-color: var(--border-color); text-align: center;&quot;&gt;Fetch: adds movie to user.favorites&lt;/b&gt;" style="text;strokeColor=none;fillColor=none;align=left;verticalAlign=middle;spacingLeft=4;spacingRight=4;overflow=hidden;points=[[0,0.5],[1,0.5]];portConstraint=eastwest;rotatable=0;whiteSpace=wrap;html=1;" vertex="1" parent="ggkkgFJlhI_n2AfVCItk-208">
          <mxGeometry y="26" width="257.5" height="30" as="geometry" />
        </mxCell>
        <mxCell id="ggkkgFJlhI_n2AfVCItk-210" value="&lt;b style=&quot;border-color: var(--border-color);&quot;&gt;&lt;font color=&quot;#ff8000&quot;&gt;set localStorage&lt;/font&gt;&lt;/b&gt;" style="swimlane;fontStyle=0;childLayout=stackLayout;horizontal=1;startSize=30;horizontalStack=0;resizeParent=1;resizeParentMax=0;resizeLast=0;collapsible=1;marginBottom=0;whiteSpace=wrap;html=1;" vertex="1" parent="ggkkgFJlhI_n2AfVCItk-208">
          <mxGeometry y="56" width="257.5" height="60" as="geometry" />
        </mxCell>
        <mxCell id="ggkkgFJlhI_n2AfVCItk-211" value="&lt;font color=&quot;#ff8000&quot;&gt;&lt;b&gt;user = updatedUser&lt;/b&gt;&lt;/font&gt;" style="text;strokeColor=none;fillColor=none;align=left;verticalAlign=middle;spacingLeft=4;spacingRight=4;overflow=hidden;points=[[0,0.5],[1,0.5]];portConstraint=eastwest;rotatable=0;whiteSpace=wrap;html=1;" vertex="1" parent="ggkkgFJlhI_n2AfVCItk-210">
          <mxGeometry y="30" width="257.5" height="30" as="geometry" />
        </mxCell>
        <mxCell id="ggkkgFJlhI_n2AfVCItk-213" value="&lt;b style=&quot;border-color: var(--border-color); color: rgb(0, 127, 255);&quot;&gt;dispatch&lt;/b&gt;" style="swimlane;fontStyle=0;childLayout=stackLayout;horizontal=1;startSize=30;horizontalStack=0;resizeParent=1;resizeParentMax=0;resizeLast=0;collapsible=1;marginBottom=0;whiteSpace=wrap;html=1;" vertex="1" parent="ggkkgFJlhI_n2AfVCItk-208">
          <mxGeometry y="116" width="257.5" height="60" as="geometry" />
        </mxCell>
        <mxCell id="ggkkgFJlhI_n2AfVCItk-214" value="&lt;font color=&quot;#007fff&quot;&gt;&lt;b&gt;user = updatedUser&lt;/b&gt;&lt;/font&gt;" style="text;strokeColor=none;fillColor=none;align=left;verticalAlign=middle;spacingLeft=4;spacingRight=4;overflow=hidden;points=[[0,0.5],[1,0.5]];portConstraint=eastwest;rotatable=0;whiteSpace=wrap;html=1;" vertex="1" parent="ggkkgFJlhI_n2AfVCItk-213">
          <mxGeometry y="30" width="257.5" height="30" as="geometry" />
        </mxCell>
        <mxCell id="ggkkgFJlhI_n2AfVCItk-215" value="&lt;b&gt;&lt;font color=&quot;#cc0000&quot;&gt;removeFavorite&lt;/font&gt;&lt;br&gt;&lt;/b&gt;" style="swimlane;fontStyle=0;childLayout=stackLayout;horizontal=1;startSize=26;fillColor=#E6E6E6;horizontalStack=0;resizeParent=1;resizeParentMax=0;resizeLast=0;collapsible=1;marginBottom=0;html=1;strokeColor=#000000;" vertex="1" parent="ggkkgFJlhI_n2AfVCItk-178">
          <mxGeometry x="11.25" y="780" width="257.5" height="176" as="geometry" />
        </mxCell>
        <mxCell id="ggkkgFJlhI_n2AfVCItk-216" value="&lt;b style=&quot;border-color: var(--border-color); text-align: center;&quot;&gt;Fetch: removes movie from user.favorites&lt;/b&gt;" style="text;strokeColor=none;fillColor=none;align=left;verticalAlign=middle;spacingLeft=4;spacingRight=4;overflow=hidden;points=[[0,0.5],[1,0.5]];portConstraint=eastwest;rotatable=0;whiteSpace=wrap;html=1;" vertex="1" parent="ggkkgFJlhI_n2AfVCItk-215">
          <mxGeometry y="26" width="257.5" height="30" as="geometry" />
        </mxCell>
        <mxCell id="ggkkgFJlhI_n2AfVCItk-217" value="&lt;b style=&quot;border-color: var(--border-color);&quot;&gt;&lt;font color=&quot;#ff8000&quot;&gt;set localStorage&lt;/font&gt;&lt;/b&gt;" style="swimlane;fontStyle=0;childLayout=stackLayout;horizontal=1;startSize=30;horizontalStack=0;resizeParent=1;resizeParentMax=0;resizeLast=0;collapsible=1;marginBottom=0;whiteSpace=wrap;html=1;" vertex="1" parent="ggkkgFJlhI_n2AfVCItk-215">
          <mxGeometry y="56" width="257.5" height="60" as="geometry" />
        </mxCell>
        <mxCell id="ggkkgFJlhI_n2AfVCItk-218" value="&lt;font color=&quot;#ff8000&quot;&gt;&lt;b&gt;user = updatedUser&lt;/b&gt;&lt;/font&gt;" style="text;strokeColor=none;fillColor=none;align=left;verticalAlign=middle;spacingLeft=4;spacingRight=4;overflow=hidden;points=[[0,0.5],[1,0.5]];portConstraint=eastwest;rotatable=0;whiteSpace=wrap;html=1;" vertex="1" parent="ggkkgFJlhI_n2AfVCItk-217">
          <mxGeometry y="30" width="257.5" height="30" as="geometry" />
        </mxCell>
        <mxCell id="ggkkgFJlhI_n2AfVCItk-219" value="&lt;b style=&quot;border-color: var(--border-color); color: rgb(0, 127, 255);&quot;&gt;dispatch&lt;/b&gt;" style="swimlane;fontStyle=0;childLayout=stackLayout;horizontal=1;startSize=30;horizontalStack=0;resizeParent=1;resizeParentMax=0;resizeLast=0;collapsible=1;marginBottom=0;whiteSpace=wrap;html=1;" vertex="1" parent="ggkkgFJlhI_n2AfVCItk-215">
          <mxGeometry y="116" width="257.5" height="60" as="geometry" />
        </mxCell>
        <mxCell id="ggkkgFJlhI_n2AfVCItk-220" value="&lt;font color=&quot;#007fff&quot;&gt;&lt;b&gt;user = updatedUser&lt;/b&gt;&lt;/font&gt;" style="text;strokeColor=none;fillColor=none;align=left;verticalAlign=middle;spacingLeft=4;spacingRight=4;overflow=hidden;points=[[0,0.5],[1,0.5]];portConstraint=eastwest;rotatable=0;whiteSpace=wrap;html=1;" vertex="1" parent="ggkkgFJlhI_n2AfVCItk-219">
          <mxGeometry y="30" width="257.5" height="30" as="geometry" />
        </mxCell>
        <mxCell id="ggkkgFJlhI_n2AfVCItk-179" value="&lt;b&gt;const&lt;/b&gt;" style="swimlane;fontStyle=0;childLayout=stackLayout;horizontal=1;startSize=26;fillColor=none;horizontalStack=0;resizeParent=1;resizeParentMax=0;resizeLast=0;collapsible=1;marginBottom=0;html=1;" vertex="1" parent="ggkkgFJlhI_n2AfVCItk-178">
          <mxGeometry x="69.38" y="270" width="140" height="90" as="geometry" />
        </mxCell>
        <mxCell id="ggkkgFJlhI_n2AfVCItk-180" value="movieId = useParams()" style="text;strokeColor=none;fillColor=none;align=left;verticalAlign=top;spacingLeft=4;spacingRight=4;overflow=hidden;rotatable=0;points=[[0,0.5],[1,0.5]];portConstraint=eastwest;whiteSpace=wrap;html=1;" vertex="1" parent="ggkkgFJlhI_n2AfVCItk-179">
          <mxGeometry y="26" width="140" height="26" as="geometry" />
        </mxCell>
        <mxCell id="ggkkgFJlhI_n2AfVCItk-225" value="selectedMovie = movies.find===movieId" style="text;strokeColor=none;fillColor=none;align=center;verticalAlign=top;spacingLeft=4;spacingRight=4;overflow=hidden;rotatable=0;points=[[0,0.5],[1,0.5]];portConstraint=eastwest;whiteSpace=wrap;html=1;" vertex="1" parent="ggkkgFJlhI_n2AfVCItk-179">
          <mxGeometry y="52" width="140" height="38" as="geometry" />
        </mxCell>
        <mxCell id="ggkkgFJlhI_n2AfVCItk-313" value="" style="endArrow=none;html=1;rounded=0;entryX=1;entryY=0.036;entryDx=0;entryDy=0;entryPerimeter=0;exitX=0.009;exitY=0.859;exitDx=0;exitDy=0;exitPerimeter=0;strokeColor=#FF3333;shape=link;shadow=0;" edge="1" parent="ggkkgFJlhI_n2AfVCItk-179" source="ggkkgFJlhI_n2AfVCItk-225" target="ggkkgFJlhI_n2AfVCItk-225">
          <mxGeometry width="50" height="50" relative="1" as="geometry">
            <mxPoint x="-249.38" y="140" as="sourcePoint" />
            <mxPoint x="-199.38" y="90" as="targetPoint" />
          </mxGeometry>
        </mxCell>
        <mxCell id="ggkkgFJlhI_n2AfVCItk-314" value="" style="endArrow=none;html=1;rounded=0;entryX=1.027;entryY=0.891;entryDx=0;entryDy=0;entryPerimeter=0;exitX=0.009;exitY=0.102;exitDx=0;exitDy=0;exitPerimeter=0;strokeColor=#FF3333;shape=link;shadow=0;" edge="1" parent="ggkkgFJlhI_n2AfVCItk-179" source="ggkkgFJlhI_n2AfVCItk-225" target="ggkkgFJlhI_n2AfVCItk-225">
          <mxGeometry width="50" height="50" relative="1" as="geometry">
            <mxPoint x="11" y="95" as="sourcePoint" />
            <mxPoint x="150" y="63" as="targetPoint" />
          </mxGeometry>
        </mxCell>
        <mxCell id="ggkkgFJlhI_n2AfVCItk-305" value="&lt;b&gt;&lt;font color=&quot;#ff00ff&quot;&gt;Render()&lt;/font&gt;&lt;/b&gt;" style="swimlane;fontStyle=0;childLayout=stackLayout;horizontal=1;startSize=26;fillColor=#E6E6E6;horizontalStack=0;resizeParent=1;resizeParentMax=0;resizeLast=0;collapsible=1;marginBottom=0;html=1;" vertex="1" parent="ggkkgFJlhI_n2AfVCItk-178">
          <mxGeometry x="40.00000000000001" y="970" width="200" height="60" as="geometry" />
        </mxCell>
        <mxCell id="ggkkgFJlhI_n2AfVCItk-306" value="&lt;b style=&quot;&quot;&gt;&lt;font color=&quot;#ff00ff&quot;&gt;&amp;lt;Card /&amp;gt;&lt;/font&gt;&lt;/b&gt;" style="swimlane;fontStyle=0;childLayout=stackLayout;horizontal=1;startSize=30;horizontalStack=0;resizeParent=1;resizeParentMax=0;resizeLast=0;collapsible=1;marginBottom=0;whiteSpace=wrap;html=1;" vertex="1" parent="ggkkgFJlhI_n2AfVCItk-305">
          <mxGeometry y="26" width="200" height="34" as="geometry" />
        </mxCell>
        <mxCell id="ggkkgFJlhI_n2AfVCItk-226" value="&lt;b&gt;MovieCard = ({ movie })&lt;/b&gt;" style="swimlane;fontStyle=0;childLayout=stackLayout;horizontal=1;startSize=26;fillColor=#FFFF00;horizontalStack=0;resizeParent=1;resizeParentMax=0;resizeLast=0;collapsible=1;marginBottom=0;html=1;" vertex="1" parent="1">
          <mxGeometry x="335" y="1290" width="200" height="146" as="geometry" />
        </mxCell>
        <mxCell id="ggkkgFJlhI_n2AfVCItk-227" value="&lt;font color=&quot;#007fff&quot;&gt;&lt;b&gt;dispatch&lt;/b&gt;&lt;/font&gt;" style="swimlane;fontStyle=0;childLayout=stackLayout;horizontal=1;startSize=30;horizontalStack=0;resizeParent=1;resizeParentMax=0;resizeLast=0;collapsible=1;marginBottom=0;whiteSpace=wrap;html=1;" vertex="1" parent="ggkkgFJlhI_n2AfVCItk-226">
          <mxGeometry y="26" width="200" height="60" as="geometry" />
        </mxCell>
        <mxCell id="ggkkgFJlhI_n2AfVCItk-228" value="&lt;font color=&quot;#007fff&quot;&gt;&lt;b&gt;setSelectedMovie(movie)&lt;/b&gt;&lt;/font&gt;" style="text;strokeColor=none;fillColor=none;align=left;verticalAlign=middle;spacingLeft=4;spacingRight=4;overflow=hidden;points=[[0,0.5],[1,0.5]];portConstraint=eastwest;rotatable=0;whiteSpace=wrap;html=1;" vertex="1" parent="ggkkgFJlhI_n2AfVCItk-227">
          <mxGeometry y="30" width="200" height="30" as="geometry" />
        </mxCell>
        <mxCell id="ggkkgFJlhI_n2AfVCItk-289" value="&lt;b&gt;&lt;font color=&quot;#ff00ff&quot;&gt;Render()&lt;/font&gt;&lt;/b&gt;" style="swimlane;fontStyle=0;childLayout=stackLayout;horizontal=1;startSize=26;fillColor=#E6E6E6;horizontalStack=0;resizeParent=1;resizeParentMax=0;resizeLast=0;collapsible=1;marginBottom=0;html=1;" vertex="1" parent="ggkkgFJlhI_n2AfVCItk-226">
          <mxGeometry y="86" width="200" height="60" as="geometry" />
        </mxCell>
        <mxCell id="ggkkgFJlhI_n2AfVCItk-290" value="&lt;b style=&quot;&quot;&gt;&lt;font color=&quot;#ff00ff&quot;&gt;&amp;lt;Card /&amp;gt;&lt;/font&gt;&lt;/b&gt;" style="swimlane;fontStyle=0;childLayout=stackLayout;horizontal=1;startSize=30;horizontalStack=0;resizeParent=1;resizeParentMax=0;resizeLast=0;collapsible=1;marginBottom=0;whiteSpace=wrap;html=1;" vertex="1" parent="ggkkgFJlhI_n2AfVCItk-289">
          <mxGeometry y="26" width="200" height="34" as="geometry" />
        </mxCell>
        <mxCell id="ggkkgFJlhI_n2AfVCItk-232" value="&lt;b style=&quot;border-color: var(--border-color);&quot;&gt;MovieList&lt;/b&gt;" style="swimlane;whiteSpace=wrap;html=1;fillColor=#FFFF00;" vertex="1" parent="1">
          <mxGeometry x="300" y="1520" width="210" height="270" as="geometry" />
        </mxCell>
        <mxCell id="ggkkgFJlhI_n2AfVCItk-126" value="&lt;b&gt;&lt;font color=&quot;#ff00ff&quot;&gt;Render()&lt;/font&gt;&lt;/b&gt;" style="swimlane;fontStyle=0;childLayout=stackLayout;horizontal=1;startSize=26;fillColor=#E6E6E6;horizontalStack=0;resizeParent=1;resizeParentMax=0;resizeLast=0;collapsible=1;marginBottom=0;html=1;" vertex="1" parent="ggkkgFJlhI_n2AfVCItk-232">
          <mxGeometry y="180" width="210" height="90" as="geometry" />
        </mxCell>
        <mxCell id="ggkkgFJlhI_n2AfVCItk-127" value="&lt;b style=&quot;&quot;&gt;&lt;font color=&quot;#ff00ff&quot;&gt;&amp;lt;MoviesFilter/&amp;gt;&lt;/font&gt;&lt;/b&gt;" style="swimlane;fontStyle=0;childLayout=stackLayout;horizontal=1;startSize=30;horizontalStack=0;resizeParent=1;resizeParentMax=0;resizeLast=0;collapsible=1;marginBottom=0;whiteSpace=wrap;html=1;" vertex="1" parent="ggkkgFJlhI_n2AfVCItk-126">
          <mxGeometry y="26" width="210" height="34" as="geometry" />
        </mxCell>
        <mxCell id="ggkkgFJlhI_n2AfVCItk-129" value="&lt;b style=&quot;&quot;&gt;&lt;font color=&quot;#ff00ff&quot;&gt;&amp;lt;MovieCard movie = {movie}/&amp;gt;&lt;/font&gt;&lt;/b&gt;" style="swimlane;fontStyle=0;childLayout=stackLayout;horizontal=1;startSize=30;horizontalStack=0;resizeParent=1;resizeParentMax=0;resizeLast=0;collapsible=1;marginBottom=0;whiteSpace=wrap;html=1;" vertex="1" parent="ggkkgFJlhI_n2AfVCItk-126">
          <mxGeometry y="60" width="210" height="30" as="geometry" />
        </mxCell>
        <mxCell id="ggkkgFJlhI_n2AfVCItk-233" value="&lt;font color=&quot;#007fff&quot;&gt;&lt;b&gt;useSelector&lt;/b&gt;&lt;/font&gt;" style="swimlane;fontStyle=0;childLayout=stackLayout;horizontal=1;startSize=26;fillColor=none;horizontalStack=0;resizeParent=1;resizeParentMax=0;resizeLast=0;collapsible=1;marginBottom=0;html=1;" vertex="1" parent="ggkkgFJlhI_n2AfVCItk-232">
          <mxGeometry x="35" y="32" width="140" height="70" as="geometry" />
        </mxCell>
        <mxCell id="ggkkgFJlhI_n2AfVCItk-234" value="&lt;font color=&quot;#007fff&quot;&gt;&lt;b&gt;movies&lt;br&gt;filter&lt;br&gt;&lt;/b&gt;&lt;/font&gt;" style="text;strokeColor=none;fillColor=none;align=left;verticalAlign=top;spacingLeft=4;spacingRight=4;overflow=hidden;rotatable=0;points=[[0,0.5],[1,0.5]];portConstraint=eastwest;whiteSpace=wrap;html=1;" vertex="1" parent="ggkkgFJlhI_n2AfVCItk-233">
          <mxGeometry y="26" width="140" height="44" as="geometry" />
        </mxCell>
        <mxCell id="ggkkgFJlhI_n2AfVCItk-236" value="&lt;b&gt;const&lt;/b&gt;" style="swimlane;fontStyle=0;childLayout=stackLayout;horizontal=1;startSize=26;fillColor=none;horizontalStack=0;resizeParent=1;resizeParentMax=0;resizeLast=0;collapsible=1;marginBottom=0;html=1;" vertex="1" parent="ggkkgFJlhI_n2AfVCItk-232">
          <mxGeometry x="20" y="110" width="170" height="64" as="geometry" />
        </mxCell>
        <mxCell id="ggkkgFJlhI_n2AfVCItk-238" value="filteredMovies = movies.filter.includes(filter)" style="text;strokeColor=none;fillColor=none;align=center;verticalAlign=top;spacingLeft=4;spacingRight=4;overflow=hidden;rotatable=0;points=[[0,0.5],[1,0.5]];portConstraint=eastwest;whiteSpace=wrap;html=1;" vertex="1" parent="ggkkgFJlhI_n2AfVCItk-236">
          <mxGeometry y="26" width="170" height="38" as="geometry" />
        </mxCell>
        <mxCell id="ggkkgFJlhI_n2AfVCItk-240" style="edgeStyle=orthogonalEdgeStyle;rounded=0;orthogonalLoop=1;jettySize=auto;html=1;" edge="1" parent="1" source="ggkkgFJlhI_n2AfVCItk-129" target="ggkkgFJlhI_n2AfVCItk-226">
          <mxGeometry relative="1" as="geometry">
            <Array as="points">
              <mxPoint x="530" y="1780" />
              <mxPoint x="530" y="1478" />
              <mxPoint x="435" y="1478" />
            </Array>
          </mxGeometry>
        </mxCell>
        <mxCell id="ggkkgFJlhI_n2AfVCItk-254" style="edgeStyle=orthogonalEdgeStyle;rounded=0;orthogonalLoop=1;jettySize=auto;html=1;entryX=0;entryY=0.5;entryDx=0;entryDy=0;" edge="1" parent="1" source="ggkkgFJlhI_n2AfVCItk-242" target="ggkkgFJlhI_n2AfVCItk-164">
          <mxGeometry relative="1" as="geometry">
            <Array as="points">
              <mxPoint x="530" y="1055" />
              <mxPoint x="530" y="730" />
            </Array>
          </mxGeometry>
        </mxCell>
        <mxCell id="ggkkgFJlhI_n2AfVCItk-255" style="edgeStyle=orthogonalEdgeStyle;rounded=0;orthogonalLoop=1;jettySize=auto;html=1;entryX=0;entryY=0.25;entryDx=0;entryDy=0;" edge="1" parent="1" source="ggkkgFJlhI_n2AfVCItk-243" target="ggkkgFJlhI_n2AfVCItk-178">
          <mxGeometry relative="1" as="geometry">
            <Array as="points">
              <mxPoint x="480" y="1102" />
              <mxPoint x="480" y="1220" />
            </Array>
          </mxGeometry>
        </mxCell>
        <mxCell id="ggkkgFJlhI_n2AfVCItk-265" value="&lt;b style=&quot;border-color: var(--border-color);&quot;&gt;ProfileView&lt;/b&gt;" style="swimlane;whiteSpace=wrap;html=1;fillColor=#FFFF00;" vertex="1" parent="1">
          <mxGeometry x="10" y="1270" width="245.63" height="670" as="geometry" />
        </mxCell>
        <mxCell id="ggkkgFJlhI_n2AfVCItk-266" value="&lt;b&gt;&lt;font color=&quot;#ff00ff&quot;&gt;Render()&lt;/font&gt;&lt;/b&gt;" style="swimlane;fontStyle=0;childLayout=stackLayout;horizontal=1;startSize=26;fillColor=#E6E6E6;horizontalStack=0;resizeParent=1;resizeParentMax=0;resizeLast=0;collapsible=1;marginBottom=0;html=1;" vertex="1" parent="ggkkgFJlhI_n2AfVCItk-265">
          <mxGeometry x="25.314999999999998" y="610" width="195" height="60" as="geometry" />
        </mxCell>
        <mxCell id="ggkkgFJlhI_n2AfVCItk-267" value="&lt;b style=&quot;&quot;&gt;&lt;font color=&quot;#ff00ff&quot;&gt;&amp;lt;Form/&amp;gt;&lt;/font&gt;&lt;/b&gt;" style="swimlane;fontStyle=0;childLayout=stackLayout;horizontal=1;startSize=30;horizontalStack=0;resizeParent=1;resizeParentMax=0;resizeLast=0;collapsible=1;marginBottom=0;whiteSpace=wrap;html=1;" vertex="1" parent="ggkkgFJlhI_n2AfVCItk-266">
          <mxGeometry y="26" width="195" height="34" as="geometry" />
        </mxCell>
        <mxCell id="ggkkgFJlhI_n2AfVCItk-260" value="&lt;b style=&quot;border-color: var(--border-color);&quot;&gt;&lt;font color=&quot;#ff8000&quot;&gt;get localStorage&lt;/font&gt;&lt;/b&gt;" style="swimlane;fontStyle=0;childLayout=stackLayout;horizontal=1;startSize=30;horizontalStack=0;resizeParent=1;resizeParentMax=0;resizeLast=0;collapsible=1;marginBottom=0;whiteSpace=wrap;html=1;" vertex="1" parent="ggkkgFJlhI_n2AfVCItk-265">
          <mxGeometry x="32.815" y="30" width="180" height="60" as="geometry" />
        </mxCell>
        <mxCell id="ggkkgFJlhI_n2AfVCItk-261" value="&lt;font color=&quot;#ff8000&quot;&gt;user&lt;br&gt;token&lt;br&gt;&lt;/font&gt;" style="text;strokeColor=none;fillColor=none;align=left;verticalAlign=middle;spacingLeft=4;spacingRight=4;overflow=hidden;points=[[0,0.5],[1,0.5]];portConstraint=eastwest;rotatable=0;whiteSpace=wrap;html=1;fontStyle=1" vertex="1" parent="ggkkgFJlhI_n2AfVCItk-260">
          <mxGeometry y="30" width="180" height="30" as="geometry" />
        </mxCell>
        <mxCell id="ggkkgFJlhI_n2AfVCItk-263" value="&lt;b style=&quot;border-color: var(--border-color);&quot;&gt;&lt;font style=&quot;border-color: var(--border-color);&quot; color=&quot;#990099&quot;&gt;set States (initialization)&lt;/font&gt;&lt;/b&gt;" style="swimlane;fontStyle=0;childLayout=stackLayout;horizontal=1;startSize=26;fillColor=none;horizontalStack=0;resizeParent=1;resizeParentMax=0;resizeLast=0;collapsible=1;marginBottom=0;html=1;" vertex="1" parent="ggkkgFJlhI_n2AfVCItk-265">
          <mxGeometry x="32.815" y="100" width="180" height="100" as="geometry" />
        </mxCell>
        <mxCell id="ggkkgFJlhI_n2AfVCItk-264" value="&lt;font color=&quot;#990099&quot;&gt;&lt;b&gt;firstName&lt;br&gt;lastName&lt;br&gt;email&lt;br&gt;formHasChanged&lt;/b&gt;&lt;br&gt;&lt;/font&gt;" style="text;strokeColor=none;fillColor=none;align=left;verticalAlign=top;spacingLeft=4;spacingRight=4;overflow=hidden;rotatable=0;points=[[0,0.5],[1,0.5]];portConstraint=eastwest;whiteSpace=wrap;html=1;" vertex="1" parent="ggkkgFJlhI_n2AfVCItk-263">
          <mxGeometry y="26" width="180" height="74" as="geometry" />
        </mxCell>
        <mxCell id="ggkkgFJlhI_n2AfVCItk-274" value="&lt;b&gt;&lt;br&gt;useEffect() to fill in the input fields&lt;br&gt;&lt;font color=&quot;#ff0000&quot;&gt;(NEEDED?!?)&lt;br&gt;&lt;/font&gt;&lt;br&gt;&lt;/b&gt;" style="swimlane;fontStyle=0;childLayout=stackLayout;horizontal=1;startSize=40;fillColor=none;horizontalStack=0;resizeParent=1;resizeParentMax=0;resizeLast=0;collapsible=1;marginBottom=0;html=1;" vertex="1" parent="ggkkgFJlhI_n2AfVCItk-265">
          <mxGeometry x="6.724999999999994" y="210" width="232.18" height="180" as="geometry" />
        </mxCell>
        <mxCell id="ggkkgFJlhI_n2AfVCItk-276" value="&lt;b&gt;&lt;font color=&quot;#990099&quot;&gt;set States (initialisation)&lt;/font&gt;&lt;/b&gt;" style="swimlane;fontStyle=0;childLayout=stackLayout;horizontal=1;startSize=26;fillColor=none;horizontalStack=0;resizeParent=1;resizeParentMax=0;resizeLast=0;collapsible=1;marginBottom=0;html=1;" vertex="1" parent="ggkkgFJlhI_n2AfVCItk-274">
          <mxGeometry y="40" width="232.18" height="80" as="geometry" />
        </mxCell>
        <mxCell id="ggkkgFJlhI_n2AfVCItk-277" value="&lt;font color=&quot;#990099&quot;&gt;&lt;b&gt;setFirstName(user.firstName)&lt;br&gt;setLastName(user.lastName)&lt;br&gt;setEmail(user.email)&lt;/b&gt;&lt;br&gt;&lt;/font&gt;" style="text;strokeColor=none;fillColor=none;align=left;verticalAlign=top;spacingLeft=4;spacingRight=4;overflow=hidden;rotatable=0;points=[[0,0.5],[1,0.5]];portConstraint=eastwest;whiteSpace=wrap;html=1;" vertex="1" parent="ggkkgFJlhI_n2AfVCItk-276">
          <mxGeometry y="26" width="232.18" height="54" as="geometry" />
        </mxCell>
        <mxCell id="ggkkgFJlhI_n2AfVCItk-278" value="&lt;font color=&quot;#009900&quot;&gt;&lt;b&gt;dependencies&lt;/b&gt;&lt;/font&gt;" style="swimlane;fontStyle=0;childLayout=stackLayout;horizontal=1;startSize=30;horizontalStack=0;resizeParent=1;resizeParentMax=0;resizeLast=0;collapsible=1;marginBottom=0;whiteSpace=wrap;html=1;" vertex="1" parent="ggkkgFJlhI_n2AfVCItk-274">
          <mxGeometry y="120" width="232.18" height="60" as="geometry" />
        </mxCell>
        <mxCell id="ggkkgFJlhI_n2AfVCItk-279" value="&lt;font color=&quot;#009900&quot;&gt;&lt;b&gt;[]&lt;/b&gt;&lt;br&gt;&lt;/font&gt;" style="text;strokeColor=none;fillColor=none;align=left;verticalAlign=middle;spacingLeft=4;spacingRight=4;overflow=hidden;points=[[0,0.5],[1,0.5]];portConstraint=eastwest;rotatable=0;whiteSpace=wrap;html=1;" vertex="1" parent="ggkkgFJlhI_n2AfVCItk-278">
          <mxGeometry y="30" width="232.18" height="30" as="geometry" />
        </mxCell>
        <mxCell id="ggkkgFJlhI_n2AfVCItk-281" value="&lt;b&gt;&lt;font color=&quot;#cc0000&quot;&gt;handleUpdateUser&lt;/font&gt;&lt;br&gt;&lt;/b&gt;" style="swimlane;fontStyle=0;childLayout=stackLayout;horizontal=1;startSize=26;fillColor=#E6E6E6;horizontalStack=0;resizeParent=1;resizeParentMax=0;resizeLast=0;collapsible=1;marginBottom=0;html=1;strokeColor=#000000;" vertex="1" parent="ggkkgFJlhI_n2AfVCItk-265">
          <mxGeometry x="25.32" y="400" width="195" height="206" as="geometry" />
        </mxCell>
        <mxCell id="ggkkgFJlhI_n2AfVCItk-287" value="&lt;span style=&quot;border-color: var(--border-color);&quot;&gt;const &lt;b&gt;updatedUser&lt;/b&gt; = input from form (firstname, lastname, email)&lt;/span&gt;" style="text;strokeColor=none;fillColor=none;align=center;verticalAlign=middle;spacingLeft=4;spacingRight=4;overflow=hidden;points=[[0,0.5],[1,0.5]];portConstraint=eastwest;rotatable=0;whiteSpace=wrap;html=1;" vertex="1" parent="ggkkgFJlhI_n2AfVCItk-281">
          <mxGeometry y="26" width="195" height="30" as="geometry" />
        </mxCell>
        <mxCell id="ggkkgFJlhI_n2AfVCItk-282" value="&lt;b style=&quot;border-color: var(--border-color); text-align: center;&quot;&gt;Fetch: update User in the DB&lt;/b&gt;" style="text;strokeColor=none;fillColor=none;align=left;verticalAlign=middle;spacingLeft=4;spacingRight=4;overflow=hidden;points=[[0,0.5],[1,0.5]];portConstraint=eastwest;rotatable=0;whiteSpace=wrap;html=1;" vertex="1" parent="ggkkgFJlhI_n2AfVCItk-281">
          <mxGeometry y="56" width="195" height="30" as="geometry" />
        </mxCell>
        <mxCell id="ggkkgFJlhI_n2AfVCItk-283" value="&lt;b style=&quot;border-color: var(--border-color);&quot;&gt;&lt;font color=&quot;#ff8000&quot;&gt;set localStorage&lt;/font&gt;&lt;/b&gt;" style="swimlane;fontStyle=0;childLayout=stackLayout;horizontal=1;startSize=30;horizontalStack=0;resizeParent=1;resizeParentMax=0;resizeLast=0;collapsible=1;marginBottom=0;whiteSpace=wrap;html=1;" vertex="1" parent="ggkkgFJlhI_n2AfVCItk-281">
          <mxGeometry y="86" width="195" height="60" as="geometry" />
        </mxCell>
        <mxCell id="ggkkgFJlhI_n2AfVCItk-284" value="&lt;font color=&quot;#ff8000&quot;&gt;&lt;b&gt;user = updatedUser&lt;/b&gt;&lt;/font&gt;" style="text;strokeColor=none;fillColor=none;align=left;verticalAlign=middle;spacingLeft=4;spacingRight=4;overflow=hidden;points=[[0,0.5],[1,0.5]];portConstraint=eastwest;rotatable=0;whiteSpace=wrap;html=1;" vertex="1" parent="ggkkgFJlhI_n2AfVCItk-283">
          <mxGeometry y="30" width="195" height="30" as="geometry" />
        </mxCell>
        <mxCell id="ggkkgFJlhI_n2AfVCItk-285" value="&lt;b style=&quot;border-color: var(--border-color); color: rgb(0, 127, 255);&quot;&gt;dispatch&lt;/b&gt;" style="swimlane;fontStyle=0;childLayout=stackLayout;horizontal=1;startSize=30;horizontalStack=0;resizeParent=1;resizeParentMax=0;resizeLast=0;collapsible=1;marginBottom=0;whiteSpace=wrap;html=1;" vertex="1" parent="ggkkgFJlhI_n2AfVCItk-281">
          <mxGeometry y="146" width="195" height="60" as="geometry" />
        </mxCell>
        <mxCell id="ggkkgFJlhI_n2AfVCItk-286" value="&lt;font color=&quot;#007fff&quot;&gt;&lt;b&gt;user = updatedUser&lt;/b&gt;&lt;/font&gt;" style="text;strokeColor=none;fillColor=none;align=left;verticalAlign=middle;spacingLeft=4;spacingRight=4;overflow=hidden;points=[[0,0.5],[1,0.5]];portConstraint=eastwest;rotatable=0;whiteSpace=wrap;html=1;" vertex="1" parent="ggkkgFJlhI_n2AfVCItk-285">
          <mxGeometry y="30" width="195" height="30" as="geometry" />
        </mxCell>
        <mxCell id="ggkkgFJlhI_n2AfVCItk-291" style="edgeStyle=orthogonalEdgeStyle;rounded=0;orthogonalLoop=1;jettySize=auto;html=1;" edge="1" parent="1" source="ggkkgFJlhI_n2AfVCItk-241" target="ggkkgFJlhI_n2AfVCItk-165">
          <mxGeometry relative="1" as="geometry">
            <Array as="points">
              <mxPoint x="250" y="1025" />
              <mxPoint x="250" y="1025" />
            </Array>
          </mxGeometry>
        </mxCell>
        <mxCell id="ggkkgFJlhI_n2AfVCItk-292" style="edgeStyle=orthogonalEdgeStyle;rounded=0;orthogonalLoop=1;jettySize=auto;html=1;" edge="1" parent="1" source="ggkkgFJlhI_n2AfVCItk-243" target="ggkkgFJlhI_n2AfVCItk-226">
          <mxGeometry relative="1" as="geometry">
            <Array as="points">
              <mxPoint x="480" y="1102" />
            </Array>
          </mxGeometry>
        </mxCell>
        <mxCell id="ggkkgFJlhI_n2AfVCItk-293" style="edgeStyle=orthogonalEdgeStyle;rounded=0;orthogonalLoop=1;jettySize=auto;html=1;" edge="1" parent="1" source="ggkkgFJlhI_n2AfVCItk-244">
          <mxGeometry relative="1" as="geometry">
            <mxPoint x="400" y="1520" as="targetPoint" />
            <Array as="points">
              <mxPoint x="280" y="1149" />
              <mxPoint x="280" y="1470" />
              <mxPoint x="400" y="1470" />
              <mxPoint x="400" y="1520" />
            </Array>
          </mxGeometry>
        </mxCell>
        <mxCell id="ggkkgFJlhI_n2AfVCItk-294" style="edgeStyle=orthogonalEdgeStyle;rounded=0;orthogonalLoop=1;jettySize=auto;html=1;" edge="1" parent="1" source="ggkkgFJlhI_n2AfVCItk-245" target="ggkkgFJlhI_n2AfVCItk-226">
          <mxGeometry relative="1" as="geometry">
            <Array as="points">
              <mxPoint x="115" y="1240" />
              <mxPoint x="410" y="1240" />
            </Array>
          </mxGeometry>
        </mxCell>
        <mxCell id="ggkkgFJlhI_n2AfVCItk-295" value="&lt;b&gt;MovieFilter&lt;/b&gt;" style="swimlane;fontStyle=0;childLayout=stackLayout;horizontal=1;startSize=26;fillColor=#FFFF00;horizontalStack=0;resizeParent=1;resizeParentMax=0;resizeLast=0;collapsible=1;marginBottom=0;html=1;" vertex="1" parent="1">
          <mxGeometry x="300" y="1820" width="235" height="196" as="geometry" />
        </mxCell>
        <mxCell id="ggkkgFJlhI_n2AfVCItk-300" value="&lt;font color=&quot;#007fff&quot;&gt;&lt;b&gt;useSelector&lt;/b&gt;&lt;/font&gt;" style="swimlane;fontStyle=0;childLayout=stackLayout;horizontal=1;startSize=26;fillColor=none;horizontalStack=0;resizeParent=1;resizeParentMax=0;resizeLast=0;collapsible=1;marginBottom=0;html=1;" vertex="1" parent="ggkkgFJlhI_n2AfVCItk-295">
          <mxGeometry y="26" width="235" height="50" as="geometry" />
        </mxCell>
        <mxCell id="ggkkgFJlhI_n2AfVCItk-301" value="&lt;font color=&quot;#007fff&quot;&gt;&lt;b&gt;filter&lt;/b&gt;&lt;br&gt;&lt;/font&gt;" style="text;strokeColor=none;fillColor=none;align=left;verticalAlign=top;spacingLeft=4;spacingRight=4;overflow=hidden;rotatable=0;points=[[0,0.5],[1,0.5]];portConstraint=eastwest;whiteSpace=wrap;html=1;" vertex="1" parent="ggkkgFJlhI_n2AfVCItk-300">
          <mxGeometry y="26" width="235" height="24" as="geometry" />
        </mxCell>
        <mxCell id="ggkkgFJlhI_n2AfVCItk-296" value="&lt;font color=&quot;#007fff&quot;&gt;&lt;b&gt;dispatch&lt;/b&gt;&lt;/font&gt;" style="swimlane;fontStyle=0;childLayout=stackLayout;horizontal=1;startSize=30;horizontalStack=0;resizeParent=1;resizeParentMax=0;resizeLast=0;collapsible=1;marginBottom=0;whiteSpace=wrap;html=1;" vertex="1" parent="ggkkgFJlhI_n2AfVCItk-295">
          <mxGeometry y="76" width="235" height="60" as="geometry" />
        </mxCell>
        <mxCell id="ggkkgFJlhI_n2AfVCItk-297" value="&lt;font color=&quot;#007fff&quot;&gt;&lt;b&gt;setFilter(search input Value)&lt;/b&gt;&lt;/font&gt;" style="text;strokeColor=none;fillColor=none;align=left;verticalAlign=middle;spacingLeft=4;spacingRight=4;overflow=hidden;points=[[0,0.5],[1,0.5]];portConstraint=eastwest;rotatable=0;whiteSpace=wrap;html=1;" vertex="1" parent="ggkkgFJlhI_n2AfVCItk-296">
          <mxGeometry y="30" width="235" height="30" as="geometry" />
        </mxCell>
        <mxCell id="ggkkgFJlhI_n2AfVCItk-298" value="&lt;b&gt;&lt;font color=&quot;#ff00ff&quot;&gt;Render()&lt;/font&gt;&lt;/b&gt;" style="swimlane;fontStyle=0;childLayout=stackLayout;horizontal=1;startSize=26;fillColor=#E6E6E6;horizontalStack=0;resizeParent=1;resizeParentMax=0;resizeLast=0;collapsible=1;marginBottom=0;html=1;" vertex="1" parent="ggkkgFJlhI_n2AfVCItk-295">
          <mxGeometry y="136" width="235" height="60" as="geometry" />
        </mxCell>
        <mxCell id="ggkkgFJlhI_n2AfVCItk-299" value="&lt;b style=&quot;&quot;&gt;&lt;font color=&quot;#ff00ff&quot;&gt;&amp;lt;Form /&amp;gt;&lt;/font&gt;&lt;/b&gt;" style="swimlane;fontStyle=0;childLayout=stackLayout;horizontal=1;startSize=30;horizontalStack=0;resizeParent=1;resizeParentMax=0;resizeLast=0;collapsible=1;marginBottom=0;whiteSpace=wrap;html=1;" vertex="1" parent="ggkkgFJlhI_n2AfVCItk-298">
          <mxGeometry y="26" width="235" height="34" as="geometry" />
        </mxCell>
        <mxCell id="ggkkgFJlhI_n2AfVCItk-304" style="edgeStyle=orthogonalEdgeStyle;rounded=0;orthogonalLoop=1;jettySize=auto;html=1;" edge="1" parent="1" source="ggkkgFJlhI_n2AfVCItk-127" target="ggkkgFJlhI_n2AfVCItk-295">
          <mxGeometry relative="1" as="geometry">
            <Array as="points">
              <mxPoint x="270" y="1743" />
              <mxPoint x="270" y="1800" />
              <mxPoint x="418" y="1800" />
            </Array>
          </mxGeometry>
        </mxCell>
        <mxCell id="ggkkgFJlhI_n2AfVCItk-317" value="" style="swimlane;whiteSpace=wrap;html=1;" vertex="1" parent="1">
          <mxGeometry x="610" y="260" width="230" height="120" as="geometry" />
        </mxCell>
        <mxCell id="ggkkgFJlhI_n2AfVCItk-316" value="&lt;font color=&quot;#ff3333&quot; style=&quot;font-size: 14px;&quot;&gt;&lt;b&gt;User Persistence&lt;/b&gt;&lt;/font&gt;" style="text;html=1;strokeColor=none;fillColor=none;align=center;verticalAlign=middle;whiteSpace=wrap;rounded=0;" vertex="1" parent="ggkkgFJlhI_n2AfVCItk-317">
          <mxGeometry x="45" y="-2" width="140" height="30" as="geometry" />
        </mxCell>
        <mxCell id="ggkkgFJlhI_n2AfVCItk-315" value="" style="shape=image;verticalLabelPosition=bottom;labelBackgroundColor=default;verticalAlign=top;aspect=fixed;imageAspect=0;image=data:image/png,iVBORw0KGgoAAAANSUhEUgAAAeQAAACeCAYAAADjYHnqAAAKqmlDQ1BJQ0MgUHJvZmlsZQAASImVlwdQU+kWx79700NCSwgdQm+CdAJICaEFUHq1EZJAQgkhEFRsiCyuwFpQEcEGulQF1wKIHVEsLIq9L8gioqxiwYbKu8AQ3H3z3pt3Zs6cX07O9//Od+d+M+cCQFbkiMWpsCIAaaIsSZifFz0mNo6OGwRYoA2UgAvQ53AzxcyQkCCA2HT8u324A6CJeNNyQuvf//+vpsTjZ3IBgEIQTuBlctMQPor4C65YkgUAai+SN1iSJZ7gDoSpEqRBhO9NcNIUD09wwiSjwWRNRBgLYSoAeBKHI0kCgERH8vRsbhKiQ/JE2FrEE4oQFiPsnpaWzkP4EMKmSA2SI03oMxJ+0En6m2aCTJPDSZLx1FkmDe8tzBSncpb9n4/jf1taqnR6D2PESQKJfxgSlZFndi8lPVDGooR5wdMs5E3WT7JA6h85zdxMVtw08zjegbK1qfOCpjlR6MuW6WSxI6aZn+kTPs2S9DDZXokSFnOaOZKZfaUpkbK8gM+W6ecIIqKnOVsYNW+aM1PCA2dqWLK8RBom658v8vOa2ddXdva0zB/OK2TL1mYJIvxlZ+fM9M8XMWc0M2NkvfH43j4zNZGyenGWl2wvcWqIrJ6f6ifLZ2aHy9ZmIS/kzNoQ2TNM5gSETDNggXSQirgE0EEQ8ssbgCz+0qyJg7DSxcskwiRBFp2J3DA+nS3iWs2i21rb2gEwcV+nXod3tMl7CNGuzOTWrgPArW58fPzETC5wAIAjrwEgPp7JmSQDIC8A4NI2rlSSPZWbvEsYQAQKgArUgQ4wAKbAEtgCR+AKPIEPCADBIALEgkWACwQgDel8CVgB1oACUAQ2gW2gHOwB+0AtOAgOgxZwEpwDF8FVcB3cBg9BLxgAL8EI+ADGIAjCQWSIAqlDupARZAHZQgzIHfKBgqAwKBaKh5IgESSFVkBroSKoBCqHKqE66DfoOHQOugz1QPehPmgIegt9gVEwCabC2rAxPBtmwEw4EI6AF8JJcAacA+fDG+AyuAo+ADfD5+Cr8G24F34Jj6IASg5FQ+mhLFEMFAsVjIpDJaIkqFWoQlQpqgrViGpDdaJuonpRw6jPaCyagqajLdGuaH90JJqLzkCvQhejy9G16GZ0B/omug89gv6OIWO0MBYYFwwbE4NJwizBFGBKMdWYY5gLmNuYAcwHLBZLw5pgnbD+2FhsMnY5thi7C9uEPYvtwfZjR3E4nDrOAueGC8ZxcFm4AtwO3AHcGdwN3ADuE14Or4u3xfvi4/AifB6+FF+PP42/gR/EjxEUCUYEF0IwgUdYRthI2E9oI1wjDBDGiEpEE6IbMYKYTFxDLCM2Ei8QHxHfycnJ6cs5y4XKCeVy5crkDsldkuuT+0xSJpmTWKQFJClpA6mGdJZ0n/SOTCYbkz3JceQs8gZyHfk8+Qn5kzxF3kqeLc+TXy1fId8sf0P+lQJBwUiBqbBIIUehVOGIwjWFYUWCorEiS5GjuEqxQvG44l3FUSWKko1SsFKaUrFSvdJlpefKOGVjZR9lnnK+8j7l88r9FBTFgMKicClrKfspFygDVCzVhMqmJlOLqAep3dQRFWUVe5UolaUqFSqnVHppKJoxjU1LpW2kHabdoX1R1VZlqvJV16s2qt5Q/aimqeapxlcrVGtSu632RZ2u7qOeor5ZvUX9sQZaw1wjVGOJxm6NCxrDmlRNV02uZqHmYc0HWrCWuVaY1nKtfVpdWqPaOtp+2mLtHdrntYd1aDqeOsk6W3VO6wzpUnTddYW6W3XP6L6gq9CZ9FR6Gb2DPqKnpeevJ9Wr1OvWG9M30Y/Uz9Nv0n9sQDRgGCQabDVoNxgx1DWca7jCsMHwgRHBiGEkMNpu1Gn00djEONp4nXGL8XMTNRO2SY5Jg8kjU7Kph2mGaZXpLTOsGcMsxWyX2XVz2NzBXGBeYX7NArZwtBBa7LLomYWZ5TxLNKtq1l1LkiXTMtuywbLPimYVZJVn1WL1arbh7LjZm2d3zv5u7WCdar3f+qGNsk2ATZ5Nm81bW3Nbrm2F7S07sp2v3Wq7Vrs39hb2fPvd9vccKA5zHdY5tDt8c3RylDg2Og45GTrFO+10usugMkIYxYxLzhhnL+fVziedP7s4umS5HHZ57WrpmuJa7/p8jskc/pz9c/rd9N04bpVuve5093j3ve69HnoeHI8qj6eeBp48z2rPQaYZM5l5gPnKy9pL4nXM6yPLhbWSddYb5e3nXejd7aPsE+lT7vPEV983ybfBd8TPwW+531l/jH+g/2b/u2xtNpddxx4JcApYGdARSAoMDywPfBpkHiQJapsLzw2Yu2Xuo3lG80TzWoJBMDt4S/DjEJOQjJATodjQkNCK0GdhNmErwjrDKeGLw+vDP0R4RWyMeBhpGimNbI9SiFoQVRf1Mdo7uiS6N2Z2zMqYq7EascLY1jhcXFRcddzofJ/52+YPLHBYULDgzkKThUsXXl6ksSh10anFCos5i4/EY+Kj4+vjv3KCOVWc0QR2ws6EES6Lu537kufJ28ob4rvxS/iDiW6JJYnPk9yStiQNCTwEpYJhIUtYLnyT7J+8J/ljSnBKTcp4anRqUxo+LT7tuEhZlCLqSNdJX5reI7YQF4h7M1wytmWMSAIl1ZlQ5sLM1iwqMhh1SU2lP0n7st2zK7I/LYlacmSp0lLR0q5l5svWLxvM8c35dTl6OXd5+wq9FWtW9K1krqxcBa1KWNW+2mB1/uqBXL/c2jXENSlrfs+zzivJe782em1bvnZ+bn7/T34/NRTIF0gK7q5zXbfnZ/TPwp+719ut37H+eyGv8EqRdVFp0ddibvGVX2x+KftlfEPihu6Njht3b8JuEm26s9ljc22JUklOSf+WuVuat9K3Fm59v23xtsul9qV7thO3S7f3lgWVte4w3LFpx9dyQfntCq+Kpp1aO9fv/LiLt+vGbs/djXu09xTt+bJXuPdepV9lc5VxVek+7L7sfc/2R+3v/JXxa121RnVR9bcaUU1vbVhtR51TXV29Vv3GBrhB2jB0YMGB6we9D7Y2WjZWNtGaig6BQ9JDL36L/+3O4cDD7UcYRxqPGh3deYxyrLAZal7WPNIiaOltjW3tOR5wvL3Nte3YCasTNSf1TlacUjm18TTxdP7p8TM5Z0bPis8On0s619++uP3h+ZjztzpCO7ovBF64dNH34vlOZueZS26XTl52uXz8CuNKy1XHq81dDl3Hfnf4/Vi3Y3fzNadrrdedr7f1zOk5fcPjxrmb3jcv3mLfunp73u2eO5F37t1dcLf3Hu/e8/up9988yH4w9jD3EeZR4WPFx6VPtJ5U/WH2R1OvY++pPu++rqfhTx/2c/tf/pn559eB/GfkZ6WDuoN1z22fnxzyHbr+Yv6LgZfil2PDBX8p/bXzlemro689X3eNxIwMvJG8GX9b/E79Xc17+/ftoyGjTz6kfRj7WPhJ/VPtZ8bnzi/RXwbHlnzFfS37Zvat7Xvg90fjaePjYo6EMzkKoBCHExMBeFsDADkWAMp1ZH6YPzVPTxo09Q0wSeA/8dTMPWmOADQiYWIsYp0F4BDixp6Idi4AEyNRhCeA7exkPj37Ts7pE4ZFvlj2ek/Q/S0Lc8E/bGqG/6Hvf0YwoWoP/hn/BZHvCBIpIPsTAAAAimVYSWZNTQAqAAAACAAEARoABQAAAAEAAAA+ARsABQAAAAEAAABGASgAAwAAAAEAAgAAh2kABAAAAAEAAABOAAAAAAAAAJAAAAABAAAAkAAAAAEAA5KGAAcAAAASAAAAeKACAAQAAAABAAAB5KADAAQAAAABAAAAngAAAABBU0NJSQAAAFNjcmVlbnNob3ROPG2VAAAACXBIWXMAABYlAAAWJQFJUiTwAAAB1mlUWHRYTUw6Y29tLmFkb2JlLnhtcAAAAAAAPHg6eG1wbWV0YSB4bWxuczp4PSJhZG9iZTpuczptZXRhLyIgeDp4bXB0az0iWE1QIENvcmUgNi4wLjAiPgogICA8cmRmOlJERiB4bWxuczpyZGY9Imh0dHA6Ly93d3cudzMub3JnLzE5OTkvMDIvMjItcmRmLXN5bnRheC1ucyMiPgogICAgICA8cmRmOkRlc2NyaXB0aW9uIHJkZjphYm91dD0iIgogICAgICAgICAgICB4bWxuczpleGlmPSJodHRwOi8vbnMuYWRvYmUuY29tL2V4aWYvMS4wLyI+CiAgICAgICAgIDxleGlmOlBpeGVsWURpbWVuc2lvbj4xNTg8L2V4aWY6UGl4ZWxZRGltZW5zaW9uPgogICAgICAgICA8ZXhpZjpQaXhlbFhEaW1lbnNpb24+NDg0PC9leGlmOlBpeGVsWERpbWVuc2lvbj4KICAgICAgICAgPGV4aWY6VXNlckNvbW1lbnQ+U2NyZWVuc2hvdDwvZXhpZjpVc2VyQ29tbWVudD4KICAgICAgPC9yZGY6RGVzY3JpcHRpb24+CiAgIDwvcmRmOlJERj4KPC94OnhtcG1ldGE+ClojBpYAAAAcaURPVAAAAAIAAAAAAAAATwAAACgAAABPAAAATwAAL/TTjewSAAAvwElEQVR4AexdBVxVyRf+TBADbLEwARVrBbtXXRW7XRPsblQwwMDaNf9it2Ihrtjd3a0YiK4YYAe61v+eec713sd7+N7jgSIz/nx3euZ+c5nvzpkz5yays7P7AuEEAgIBgYBAQCAgEPihCCQShPxD8ReNCwQEAgIBgYBAgCEgCFk8CAIBgYBA4BdBoFu3bibdyaxZs0wqJwqZFwFByObFU9QmEBAICAR+GAKCkH8Y9GZpWBCyWWAUlQgEBAICgR+PACfk2Qv9DOpMV/fuLJ9YIRsEV6xnEoQc6xCLBgQCAgGBQNwgIAg5bnCOrVYEIccWsqJegYBAQCAQxwgIQo5jwM3cnCBkMwMqqhMICAQEAj8KAUHIPwp587SbIAk5caLE6FNmAFImS4mAy6txLeKqedAUtQgEBAICAT0ItCjcCvnS5cehuwewL2SPnlwxi46OkFMnTw3XfPXgbFsK1hbWSJUsFUJTheCOxW2IPeSY4W6u0mYh5GRJkqFJ2aZIlAg4fPUwQsNDDe5f0sRJUdq+NHJkyIHUVqlZuaevniLgaIDBdRibsbZ9HXQo0ZkVa7euFV7/98rYKkR+MyOQMWNGvHz5Eu/fvzeqZmtra3z+/BmvXokxNAq4OMpsmTI12gyfLrWWCPvXzkfw6UNx1PLP10z9Ag3RtpgbPn35BPfAtrEy7+gj5ETS5DyjxhxkSWmrAibE8hZuWQYLQlah8uMCZiHkNFZpMMVtKruLtUfWYNvZbQbdkW1aWwxrOhyWySxV+d9/eI/uc007T6eqSEcgRdIUWNRoGZIlSY79IXsx/dgUHbl0R61atQqJEyfG9evXMXz4cN2ZRKzBCJQqVQq9evWCjY2N9DInvc1J7tOnT7h16xb69eunt55s2bJhyJAhyJ07t1zuy5cvePbsGfr374/w8HC9ZX9UQma7fEiewgovnzzGi/CHP6obcd5uetscGLJMsxrcu3IOtiz4S+7DsJWHkNwyBR7fu43/9W4qx3NP0cquaNxnFAtuXfg3jm7050nx8mqZ1BJLm6xEkkRJsPPWdsw+MdPs96GPkO3TOcK38iTW3sXH57Hw/FxEREagfVs3fJH+iRWy2YfCpAp/KCGPbO6NnBlyso5H/heJ249u4+OnD3jy+ilW7F9u0g19r1BTpxZoUfhPlq3P5h749+W97xWR0zdv3sz8jx49gru7uxwvPMYj4OLiAm9vb50FP378iPr16+tMS5kyJZYvX47kyZPrTCciDw4O1pn2IyPHbb2MpMmS49/gS5jWveGP7Eqcth0dIU/ceV16oUqMN8+fwbtJySj9qtSkA+p0HcLi966aiy3zNYQSJWM8iujq0gPV8/3Beuwe2AYv3r8wa+/1EXL13DXRpXgP1lbfnd3x7yvNvCeOPZkV/hhXZhZCTp40OTpW68Q6s/P8Dtx4cMOgjs3vvoCtcO5G3IXPam+DysQkUyJJbLao8XLQXsr1iGvw3OlhVHWCkI2CK9rMc+fOBa10ye3evRtBQUFM9FylShWUK1dO7wtPjx49ULt2bVaOVtIrVqzAnTt3ULJkSTRr1gxeXl64e/cuS/+ZfgQhA9or5IRIyFlSZcHMunPZo7n64kqsubTSrI+pPkJu5NAUfxZqy9pqHdQU7z6+Y35ByGaFP8aVmYWQTelFmhSSmNtdI+beeHIj/jmx3pRqjCrzm60zvCqPYGV894/C6bBTRpUXhGwUXNFm3rBhA5ImTcrEy+3bt482rzJxypQpsLe3B4moGzdubPSes7KuuPQLQhaEzJ83n6pj4ZS5MN5+eIs2AS14tFmuhhByi38a4uPnj6w9Qchmgd1slZhMyCRqLpC9YJSOnLtzDo+e694jK2JXBHky52Vl0kgKXJUKVWb+4LBgXL9/Xa7r5dsX2HNJs+8kR5rB071kL/yetzqrqdmqhky5wphqDSXk4lXqwK5gcbyQ9gv3rpoTpYly9dsgY/ZceBR6E0c3RX1DTpw4Caq36YV8xcvAOkNmVv7ty+e4f/MKDm9YhrBb+rXCU6fNgAqN2iNngWJInzUnXj0NZ2LSXcv/h5eSX5/LXdgZv/0uiYmlb3/9M9MHyZJbwvmPRihayRU2mWzxIuIRDgYuxvl9GrG9vnoMjQ8ICECKFCkQFhaGTp000hVDyo4fPx6FCxdmhFynTh1DipgtT/GqdVGyVlPYZLRFMosUePvqOZ6E3cWJrWtw9fg+VTs5HYvCpWYTOa6UazMmno189QLn92+V48lz5ejuKOV5BqqjYOmqoD1ocg9DgnHx4Dac3buJZ9F5LVW7ObLbO+H54wfY7e+HtJmzobRrCxQqW03quyXC/w3BVmk/l54pbVekYi04lauObPkLSmJ2Czy8Q21ux6kdgdpZVWF67gqWqYoM2XKx+i8e2MaUuPTtIZtjhZw9vxOqt+2FdFmywyq1Dd69fS3t0z/CBantk9vX4eN/+pUETbnPlNZpUdOtP7vvI0HL8ejOTRQqVw3ONRoha94CoL/Ty0d2YdfymZLE55MKHx5wdagL9980z3zfLT1x74X5JDqCkDnK8fNqMiE3L9ccNYpp9kKUtx6dUtegBh5wzOaozK7TH1tKXXPqL0AGq4x4JWlVt5e0q411hhJyvzkbpT9ORzYZDK3tFKUZ74ATSGmTFi8jHmN0i3KqdJp4+876B0mTW6jilYHh9YqziUcZR34ijOYeE5FEWnlqu0/Svqy/b39polKTAc/XSFKeKVO3JQtO7Vofvf63Tmc9cz3a4caZI7yYydfp06cjb968jFi7d+9usJi5TZs2aNFCs6pYsGABAgOjJwmTO6goSPucHot3SERjp4hVe4NmjsHB9UvkyNodB6FKC40mvxypx3P5yG4sHtFVlWohKYB1/XsFI1VVwtfA7fMnMG+IGz5++E9XMjwW7UDGHLnxPvIt1v7tidbDNNIoZeYvXz7Do7qDHEVtdp64VHqZKyrHKT2hl89i9qA2UUiO9sZ7Tl/LCFyZn/zUzzxFNfvD5hZZtxg8CSWqN9BuUg7fOnuM9VeO+Oox9T6peG4nZ3SfqnmJ3jJvEsrWawWbzFm1m8CJLWuxdrJnlHiKKJqlOEZU8WFpC8/Mw+brG3XmMyVSHyGTuJrE1uTECtkUZOOmjMmE/FueEqhSuArrpUVSC+TNoln5RkfIVZyqoGCOQqyMlYWVTM6PXjzC/Sf35Tt+9uYp/A+YV6PSIokF/JutZW3ceBKMITsGyu0Z6okLQibNU+uMX1fFL57jwe1rbGWbIasdskorFiLbEQ2cEflarQxCGqnKSffB7esIl7RX00vlaKVDjsS8k9z+YKsX7XtWEvLbly9glcYaROIvpZUxTfpps2RjSknzh7jj+qmD2sWNDhcqVAgTJ05k5YxRkiNlrrVr1zJxNyl/tW7dOtaPPCknflpxPbxzA4/v3mIr5Wz5C8HCKiU2zR6P/QELZBwKlKosEXIXOZzLqQTTl/jwLhL/3rgsx5PnzK4NOLZ5lSqu14wAmRgJfyJD0kS3K1RcegaSsbzBpw4xUlYV/BrghExjSOUSJ0kCavv544fSy15yiURspZyJJEK2l4srn73/pLx3Lp1mz0CeIi7sHimjLpLrNH4x7J01L5aEz+0Lp2CZMhVyOBZhbfMGzEnItIJv5+PHqqYXi4h7odJq/zJSpLZGllz27G+IXgZmDYj64m3qfVJjSkImaQe1R39Xr59GSBKTF0iTPpMUlwantgdi9aTB/NZV14wpM2F2vfks7vi9o5h4aJwqPSYBfYQ8qeo05LbJw6puGliPaVZTQIisY4K2+cuaTMjKrphy7ClD6gyY0FYzIRP57r64S1ml2f2ZpD+CWV//CPbc3oWZx+lspHEutgnZ0ioVRgedZZ16K5HxyMYuqg4SGVds7I4D6xayiZIn0gpu1D+n2SRIk8NCr864dmIfT2YiT7cxGtE5iTz/7uQqp3GPkpApLkSaVOcOaS+vhqiNWh0G4LhEHE8e3OPFTL62bdsWzZs3l8uTCHvRokVyWJ+nRIkS8PHxkSf6kJAQ9OzZU192s8QPX31Emmgzsol3bMsKTHyvrJi2KB6G3pBenq4ro1V+Y/aQSUoycIFGkvH+7RtMaFcNr55FsPpsMmWFx8JtSCYdF6KxHvtnRZ3HqDgh805oaylbpbFBLbcBWDdNc3yvYmM31O2mWdGF3byKGb2ayKtveu48Fu1EOtvsrLqZfVrgzuXTzJ/SOh1GBhxj40Gr8XGtq+DNi6cszb5EeXQcv1AeK3MSMp1tLlKpFmsnYPIwHN+ymvn5D4my6SWSRO1KZ+p98jqUhExxryQi9uvbAhFhoTwLk1RJg6N3W4FekAJabGD5TV0cyI1peXQRso2FDea7LmM5H799hO7bOsqlBCHLUPwUngRDyPnT2WP8H38x0JeeW4QNV9cbPQCckO/fv4/OnfWLI00VWdM+n+eKfaxfxhyPKd+wLer30EysR4P8ETh9ZJR78/I/wPaCaRIfXMNRmi8+q/IoCZne/Ec0dFalmzPg7u7OFLKUdbJ+DR6My5e/rR4zZ86MnDlz4unTp+xsctGiRTF27Fh5gufl16xZgyVLvomLaW/ayckJHz58wLlz53g2k6++my4wAqTVn64tCEMqNoaQW3tNRdEqmpcm7ZU3tVXTrR9+b9WdNXt040oETtMoKir7oSTk4FOHpZV0e2VyFP+o9afZyu7Txw8YXr8EPryPVOWhfWz+UndB2gNfNro3S6/b1RMVm7gx/65lM7F9iVo03lva+qCVMjlzErJSgjChbTUVIbLG9PyYep+8OiUh0zPr26qyJHUI48kGX+c3WIK0KdLi8ZtH6BZkuA7F9xrghHxrryQdS5EBma0yo3S2sszuAhkkmXBkDM48OiVXIwhZhuKn8CQYQi6QsRDGVNOIhuafmoOtNzYbPQCbNm1iZEDnXKMzXGEqIVOHJu4MZm3QH/vJrQHMuhEZTojOtfKcgmJV67AstAImxRJa0TKXSHPJmD03UqVNzwJ+/Voi5OK3P0qKVBLyjiXTsXPZDE1BM/86ODhg8uTJrFYy4EF+X19fds/v3r1jIujISA0ZkPGV0qVLM03sjh07MlE1iaxJVE0GQEjkbWlpyVaKHh4euHJFo6BER6cGDhzI4s2h+OW5fB9bbVGnSXKwfek03Dp3zChkjCFkJYnRy5O2cpBSkqJLhEwdUxIykcazR9+2hHR1nD93nyXDLCSqlp8fyvz1GSLFP3IR/97BhPbVmb+j7wI4lKzI/Lq2UpQvi+Yk5OaDJjClQ2qYdDE2z5vI9CP07amzDko/pt4nL68k5HtXL2B6r8Y8yajrzLqS1axUtnjyNgKdN7gbVTa6zJyQiz9wYYTM816NuIxpJ/9ixkB4HF0FISvR+PH+BEPI2dJkx3RXzZ7TluBNWHB6rtHor1+/nhmkOHPmTLSWumJCyH8OnYziv9dV9Y1WLY/v3sYGvzE6iaDf7CBkzVdAVSa6wLopw6PsWSoJ2Vz7xLr6QARMpEwWuVq2bIk3b97Azc0NTZo0Ydlv3ryJPn36MD+Jpp2dnZmhj+PHj4MUusiNGDECp0+fZtrW48aNi0LmNWrUYHWQGc5GjRqxMjH50d6fp7pIwvAyIpxp0ZPm+/ecMYTM9zhp/3dITd3jyolFSY7KPnBCphc75T6xMg/3K0XkPC66K+kYjGykIeeB87cic658mpcixX40L+/gXIGJrSlsTkJOky4jvFYeZHvjvC26Ut/O79+CoFlj5e0Wnh6T++R1KAk5un1inl/fdU2L9cxi153nIRiwVfO868trTDwn5Dv7Q5ExRSZkT50DJWw1W18fPv0H74PDcP3pVblKQcgyFD+FJ8EQcirJGMiSxisY6BcenofPXo2I15hRmDFjBrJkyQISXS9evFhv0ZgQMlVKe5J1u3khdboMUdoIvxuCyV3qyPt7lEG5gqNV9fccKR/RkSulUxLymBblo+yTKvPGxM9fasiYBxn54G7mzJnIlSsXC/r7+zODH4R3njx5cODAAWZEhLSyta140ZGpBg00mrZcckHnmps2bYonT56A9qrN4ei4UMNe3rLCnbLOyFcvMXdwe+l42UVltMpvDCGPWn+KKQuREpZnHY24V1WZFBi/7SpT8Hv5JByjm5fVTpZXyKSc5aWnDl5ISZovwh8h+DtKe+H378jH+fizp62xzevObl8YffwCWVCbkCdsv8YI1RBLXXv8Z4PMZyodKTq2GTEDtnkd1Ct6KRO9zGyc5cuOCfIyMblPXoeSkLctnMKOlPE0Q69pLNJI5nuXs+znH5zFqH1Rt5gMrUs7Hyfk2Qs1iw9Kd0xfEGMqTWBZ7768g/67esnFBCHLUPwUngRDyIT2iqZrQPZkI96Go8uGDrE2AH1nbWCazfr2HMcEnWNaq7qOPSk7RXvKdDa4VO1mssiU0rWPVHSTjsfwoyX6jkQp69XlVxKyd+OSkmLOM13ZYhzHxf6HDh0CrW65S5UqFZYtW8YkELSqGzBgAEu3sLDA0qVL4erqivTp07P9ZL5S5mVnz56NHDlysCBZ7iKznGQ85Nq1a6wens8cVxIXO5WvgXIN2khjXIitzqneJ2H3ML5tVb1NGEPIg5fsYkes9JEcNTJp1w3WVtita5jSRS1RoQS+QiZFq2F1i7K8+n5Iwcsn8CRL1qeZrK+sci93ULX8UbLRWd82IzQKlNqEzF8qlCtuZQWkpV6740AWtXXBZOxZOUuZLPvp3H7+EuVQrl5r2LuUl7XQSfzu6eokK0DG5D55Y0pC3jx3Avat0WhL83RDro4ZCmBsdQ1BBl4JwIrzSw0pZlAeXYRMBWfXWogMKTIy2wvN1387KiYI2SBY4yxTgiLkoRWHwzmbRnzTeGW9WAO5x9RVoGMu+iZUbhDhe4Ss7CARc8uhf7Go8HshmOhWQ05u1NsHZer9ycILPDupNKzlTN/xxBUh8xXyvXv30LWr+uwtaVCPGjWK9ZRImbRRSbRN547JIIiuFTJlTp06NSPzZMmSMdEplSPn7e2Nkyc1RMMizPxDYtNhqw+x1RlN/oP/cNTbAidkfQSqLNh10jLkLV6aRena/yUDFP3mBLF0XWeYKcEYQqb8fLX6/FEYxraqRFEGOaUC2rRuDaUjXZdU5ep0HoxKzTRavdqEzJXlSJN8WL1iqnIUqOU+AFX/1DwjgdNGGvxxiRGSVnxqSSuenFIjnMKm3ieVJWcOQibjRGSkiNzI3V649Fi/ZIVlMuJHHyG3LeyOevkbsprEOWQjAI3jrAmKkGvkkwysu2i0U421kEMav8WLF2fDQ5/727Fjh96hUk5Sf3WopRIPl6n7p6RA5cPKGkPI9Hbvve4EIyntSTNPkZLoNlkjjieR9kT3b2St3Uky4qBL8SWuCHnevHnImjUr6xYpbdF+vNLR159q1qwpR9H2gJ+fHzvaVKtWLRa/ZcsWkIhb6bQ/VvE9TXhl2Zj4fdadhJW1Db5HyDzf62dP4NNUQ7b62q3dYSCqtOzCks/u3gj/cf1VWd3HzEOB0pVZ3KY5E5jinyqDFDCWkD0WSoZEcuZm1URn/EX7+SHLZU0H+LJylw/vwuKR3VRdGbHmqLz1ok3IXNxNBbwbl5KPS/EKek5bw85dU5iM1eiyKsbzKq8dxs6HYynNS4VfX0mB8dI3BUZT75PXbw5C7lGqN6rmqcaqbLG6MT58/sCrj/FVHyErbVkLQo4xzLFWQYIiZOXnz+gD4TOOqY9oRIey9rlZ2rekYzW6nFKz9OmDf5lIkUz6ObhUhNvo2bJITZuQab+th2QFiMz+bV04WT5OQaLrloP/Qu4izqy5iwe2Y+monqqmlaLDe9cuYNHwLvLZVRKzlpEsCpFpw/eRmnOtqsJSIK4IuWLFihgsHW8iR6tfsrZFdq3JWVlZoUOHDipCJjE2ffaSxNV0TjmJZOCC3L59+0B2rWlPmVbE9erVYyY4+eqY7yezzDH8Gb3hLO5Lxjy2L54qT+70nd9KTTugWmvNPjjtvY5pWV5vS/0l6222kvU2cofXL8XeNfN0nh+mdCK9MRvPseeEJAUb/cbKVsCqSced/pCOPZGjPWavusWYJIZFKH6MJWTlqpuUCDdIlseUnzuko0s12/eXRMNlMG+wm8paG9+CoebXT/cBmZQkMXLbkf9jZiV5t7QJuXrrnqjRXqPQ9O7Na+n8fCeGL5l/rdNlCH6rVp8V1XUMr6/fP9KnG63YHu6Z3UEMA2qzUNnf0WbkDCa1IOy0j/jF5D6pMzElZOUcdCj0IKYcmcThMcvVEEJuuUF6CZAUvMgJkbVZYDdbJSYRchWnqmhdqbVBnbh6/yr++ifqQxfXhkF4Z/uU6Y+KuSqzvRS3da3x5sMbnhTt1RhCpiMjvlsusomVV0ria4qnSYIMRpNfm5BzFSqBHtNW8SJs1fX500eVGU1SVpkkiau1jXOQzetBi3aAzAJyR3nJKU1p0gvCuDZVeBb5GleETA3y40y8ccKENKJpv5gTqjKtd+/euH37NiNqWkErHR2V0lWO8pjLtCYXc1Kd1NeP79+xc8kU5m6pdw9cPKRfapL/t7KSWcolPLvqeunQTizx1khueALZMq/RrjcPyqSrPI4UREQduFjOo/QYS8hUVrn1QWG610+SlbAk0guCcly0V9Blpb3bhr2/KSaRtCCR9N1wZRmqT5uQKY4bXSE/OWpTu5wurX9+f5pSYBrV2v0kBcc1fw/lWeSrqfdJFcSUkOs6NkD74u6sLx7b++PW05tyv8zh0UfIys8vdt7SHk/fPWHNCUI2B+rmq8MkQq5WpDpaVmhpUC9uPryJces0Ii1lgXSp0mNSOw1RL9+/HHtj4WMSyva4P3uaHJjmqhF3+l9YhnWX1/KkaK9kopGO6XAX3QqZ8tAE3MF3vrwapjgiyIDJXnDt5MHOBGuvqmgl3H3KSkmTN0uUSYnKR9wPZeJLWgHrcrSyajtyJhPXaU9qlJ9eAA4ELFSZeOT1kAZx2fqtWHBkIxd2lpmnxcaVvnfs7u7OTGAq66cVL1ntIgtcQ4dqJtPnz5+jVStN3+jDEp6enkiTJo2yGJvIT5w4wUiYRNz0JSma3OlFigyLxMSR9IE+1EDmJ7Udrew2zvaVPjDx/efIsWRlpqSUJXd+aXwTy1XpImRKJL2BZoPGqZ4hiidlwRVj++HS4Z0U1Om4aFbf/qzOQlIk9bGV1xRm9U07D62c7145j+Vjekf5UAl9XIFE10qM+PPe3EOjwLR7hR+2LZqiqjZFKmvWnoNLBVU8BWhlvHrSEPaxBu1Eel5dpI+fkMUybUft0njoMpjC85p6n/TRmJ7T17BqdBlt4fXrutLnXxc0XAprS2uEPLuNgdv66soWozh9hFw8cwl4lfNmdS88L31b+tZG5heEHCO4zV7YJEI2ey/iuMJepfuicu6q7PNnbde1ZBN3bHSBCDJv0VKSNq4T++pNdMdilO3Tipb2hTNmz4OU0t7xY+nLPHevnvuucQdeB0329HELqoPEeGTW8d71C7FOsrx9Y652dnYgC1zkzp8/j9DQUIOKkwi7WLFiSJcuHTMIcv36dSa+NqiwiZloS8E2jwOzYf08/AHCpC8lGbqvaWKTrFimHHkkW9HlJYnJZ3YkSWmmMSb1RleWdBbo2c1ilx/PJEtU9IWx6L4yxusiKQ89d7fOH0PolbM8+rtX2lYhsqO/lVfPwplxEvoi1fdcetscyO5QBHQE6n3kazYe9MKqS09CV12m3qeuur4X55ytJIZWHMayxcbqmCrWR8gpklphoWQ+M1mS5Kz9iMhwhL95jI85P+BR8geYNUu3BjvLLH7iDIEESchpLKwxv+FidjB/7L5ROPPgm9JHnCEvGhIICAQSFAIjq4xGkSxFcfTuYfx1WCM1MDcA+giZ2nHOUhI9nPsitWSTgbsQy1u4ZRksCJkD8oOvCZKQfzDmonmBgEBAIBArCERHyNQgic2tLW2QzjIdbCzSolKtSohMHCkIOVZGw/hKBSEbj5koIRAQCAgEfkoEvkfI2p0We8jaiPzYsCDkH4u/aF0gIBAQCJgNAUHIZoPyh1QkCPmHwC4aFQgIBAQC5kdAELL5MY3LGgUhxyXaoi2BgEBAIBCLCAhCjkVw46BqQchxALJoQiAgEBAIxAUCgpDjAuXYa0MQcuxhK2oWCAgEBAJxigAnZGMbFeeQjUUsdvILQo4dXEWtAgGBgEAgzhEQhBznkJu1QaMIuWHDhqxx+oSecAIBgYBAQCAgEBAImA8BQcjmw1LUJBAQCAgEBAICAZMREIRsMnSioEBAICAQEAgIBMyHgCBk82EpahIICAQEAgIBgYDJCAhCNhk6UVAgIBAQCAgEBALmQ0AQsvmwFDUJBAQCAgGBgEDAZAQEIZsMnSgoEBAICAQEAgIB8yEgCNl8WIqaBAJGIdBs4HhYZ8iCG2cOYd+a+UaVFZkFAgKBXw8BQci/3pjGqzuyzpgFadJnwn+Rb/Eo9Ga86ntMOztuyyUkTW6BsJtXMaVrPbm6juMWIqdjUXz58gUjGznL8dxjkcIKXv4HWfDGmcNYNro3TxJXgYBAIB4jIAg5Hg/er9D1frODkDVfAXz87z2G1nb6FW7J4HvQR8hDl+1FOtvsrJ5B1fJHqS9FKmuM+ucUiw+7dQ1TutSNkkdECAQEAvEPAUHI8W/MfqkeC0KOukIWhPxLPeLiZgQCBiMgCNlgqETG2EBAELIg5Nh4rkSdAoH4iEC8IGTaM6vlPoDhe2JbAMJuXVVhnd42Byo0as/i9q6ZhxfhD1XpFEhpnQ51Og+GbW4HpEqbAR/+e4c3z5/ixtkjOLJhOV49i4hShkdkty+MkrWaIodDYaSySY8n90Nx++JJ7Fo+E58/f+LZolxL1W6O7PZOeP74AXb7+yFt5mwo7doChcpWQzILS4T/G4KtC/7C/ZtXopSNTxHZ8zuhetteSJclO6xS2+Dd29d4+eQRLhzYhpPb1zFxNL8fS6tUcJXGgbuilWojReo00n7pZxzfvIZHs2v4vds4sG6RKo4HXGo2QcHSVZHZLh+LehgSjIsHt+Hs3k08i85rTMbE1OegQKnK7PnJlq8Q3rx8hmsn9mPPyjkYtf6kzj1kc6yQjRkTbaCKVKwFp3LVkS1/QSRNZoGHdwjb7Ti1I1A7qypcu+MgpEiVBjfPHcP5fZvZPjg973mLlcbHD//h3vUL2DjbF29ePFOVo0DFihXh6Ogox+/cuRMhISFyWHgEAgkBgXhByDTpDlywlY3HzqUzsGPpdNXYONdohOYeE1jcUp+ebPJQZqBJoVHfUUiUKJEyWva/e/Maw+sXl8NKT8Ne3ihbv5UySva/fvYEfv1aMmKVIxUej0U7kDFHbryXFJbW/u2J1sOmKlI1XiIij+oOUeLjS0SLwZNQonoDvd29dfYYZg9qI6crx1KO1OMhfH2allal0stZ179XsBcdVcLXwO3zJzBviBsjAF3ppo6Jqc9Bg54jUK7Bt/vnfaKXtNTpMiBJ0mRRlLpiSsjGjgnvE2HbeeJS5CxQlEeprqGXz7KxpP1+XW7C9mtInCQJQi6ewrNHYfit2jdFNZ7/Sdg9jG9blQfl6+TJk2FnZyeHV61ahbVr18ph4REIJAQEfnlCTmaRAmM3nZPIODEbT5oIaUX6RVrZZsqZVyLMPEzDd1i9YlHGu7XXVBSt4sriiThDL5/Dq6fhjAzSZsnG4iNfvZQ0YV3YCk+7Aj75f/r4kb0M0GT14V2ktGJ+KK2MksMms61UJJFEyPbaRQ0Op0uXDhMmaF5GDC109OhRLFy40NDsevPRKqqdjx9LJ3wi7oVK2F6WVrzWyJLLHtYZM4MIctaAby80Ka3Top23pgwVJKkDaRqTRvGdS6dVbdGqN3D6SFVcrxkBMmHQqotIgl607AoVZ+RGmYNPHWKkrCr4NWDKmJj6HJSp+yca9fFhLRM+d69eYM9a7sIl2D3z/mlrWceEkE0ZE96PYSsPsTGj8H/Sc0rjQc9uniIusLBKybJpv2DxsnTlhEwvuJYpU7GkyFcvJGlJuCQ5sUbq9Bnx7OF9+LauzNKUP4KQlWgIf0JF4JcnZOWkeP3EAcz37KAa69SS+JpEdIc3LFPFZ8yeG4MWbWeT/fu3b/B3J1fprf++nKf5oAlw/qMRCx8IWMREcXLiVw+f/Hn83lVzsWX+JB6EVRob1HIbgHXThstxxnpoVeHn943gDCl/9epVDBw40JCs0eZpM3w6ilSqxfIETB6G41tWq/KT2JReXEjcqc8Zs4esXF3TmExoV03earDJlBUeC7chmWUKRu5j/6yoc+vC2DGJyXPgHXACKW3Ssv7MG9xeOm98hMFAz9zgpbtBK1Jy5iRkU8ekYmM31O3mKfdnRq8mspQhSdKk8Fi0U9b8ntmnBe5cVr88UUFOyOQnIl8uHce6dHgnBZnLmrcAE4VrS7goURCyBiPxm7AR+OUJuXqbXqjRTnNOc9eymdi+JKrYWNcj0GXSUuQrXoYl+fVtiZBLmmMmPK9y5U0rgNHNy/Ik+aqc/INPHZZWbe3lNHN5bGxsMHr0aKOqoxWyv7+/UWV0ZVauVie0rYaIsFBd2aKNM4aQlSvVTbPHY3/AAlXdNd364fdW3Vnc0Y0rEThthCqdAsaOianPQbZ8BdF39gbW/r/BlzCtu+Zb4rxDNdr2ZvvuFDYnIZs6JqPWn2Z7+Z8+fpC2b0rgw/tI3lV2pf16tzFzmP/C/q06zz4rCTlw2kgc3Wj4MyYIWQW3CCRQBH55QnZwqYiO4zQTN4k4iZSPbV6pU7FE+QwoxXckduUib5bn61Z0DsciktJLciau1rUPrJz8fVtVVq2wlW3FV79SSvAy4jE2z5soKXJtlVdWhtyXMYTc+3/rQJiTG1zDMYpCHSmMjQ46y9L1iVaNHRNTnwNSHmvSfwzri66XB1odj9l4nqWbk5BNHZOJO4OZNOjzp09MVK3rec9dWGOkJOLfO5jQvjrru/KHEzJty3jW0YyTMj06f9q0aUEvl9w9ePAA796940FxFQgkCAR+eUKmUfTyPwCbTLaqAaU9Mtp/XDvZUydRjtt6mZGtqlA0gSE1CzAxnTILn/xpfzQm+8TKOn8mf5p0GeG18iBT5FH26+3LFzi/fwuCZo1VaVgr83C/MYTMyZHEoYS3LseJRR9pGDsmpj4H9boPkzT/27EuLhrWBVeO7YnSXd5XcxKyKWOi3AqI0kkdETS+uiyIcULWt0+soyoRJRAQCCgQSBCEnDhxEvzRvi8qNnFTKdMQDkSW5/duxgrffgpYAD5Z0tv+OSk9OvdZUthZN2U4Wykr8/HJn8jfy8gVg7Ke6Pyk0OTgYJyWdkREBOi/OVyGrHZoM2IGbPM6qKUIUuVEnBtn+UbZn1e2awwhj1p/iimMRbcCG7/tqqTclZQpEkW3jWDomJj6HChXqnMGtpWOAh1V3jbz875qEzJ/bijT9yx13b9xBVO71VfVbeyYODhXQMfxGiW/F+GPJKW4g6r6tAPh9+9g7yqN+FqZxgk59Mo5/K93U2WS8AsEBAIGIBAvCDmTpAlNClbkdO0DV2raEXW6aM626jr2pMSBnyUtVtmV7ZnxtHmD3RB8+hAPYkzQOaZZGt2RKDmzHg+fWOnY07C6uo+S6ClqcPSPVOpSdpJeevKXKIdy9VrD3qW8rPFMIlBPV6co0gNe1hhCHrxkFzJks9O7RUB1Ttp1g1Wtz6SksWNi6nNQTdrL/kPa0ybn79sfZ/dsZH7lj9xXLVvWA+dvReZcmvPVukTzpBQ2Yq2G4EnK878+zZTVyn5Dx4SUC30CT7Jy2lrxcmUGeDgh07EnOg4onEBAIGAcAvGCkMmoh/e64+zOjm9Zg4DJXqq7bDZgHFxqNWFx3yNkZUE6fuNUXrMXdjTIX3XEhk/cdFxlaK1CeglFWZ+2n9eREAhZ+95HrD7CjrlQvD6tXErrO2sDM0BBykRDahakKL2u66RlyFtccy5Z1548afH2mxPEyl8+shuLR3SNUpexY8LzG/scFC5fA229Z7L2DwYuQZCfZj+Zd8g2jwP6z93EgtorZKViFh2pe/vyOS/GrsoXVGOUBaMbE06mz6Xzw2NbVVK1Z2iA12EKIVeoUAFVqlSRm9q/fz/ov3ACgYSEQLwgZBoQLjrUJaLjokzKZwwhk/WtpgN8qRjO7NqAleMHMj/9KA1BHNmwAutneMtp2h5S7CKFMW3HJ/PYJGQSWefJk4cp5Gi3ry9M4urnz9WTvL68psZ3GDsfjqU0E7suLXVerzKfp2uRKNq9PB9da3cYiCotu7Cos7s3wn9cf2Uy3MfMQ4HSlVncpjkTsH9t1E8aGjsmpj4HdN56ZMBxNi6vnkZgVLMyqr6295mFQuWqsThtQlaKuwOnjsDRTStVZau27IZaHTT3ru/InarA14ASa+0x8VgoGbHJmZvlnOvRTj6ipV2Pvmed8sWEkAcMGICyZb+dVDhx4oTR5+u1+yrCAoH4hkC8IWR+LIMAXj1xMDPjRwYl3MfMRf7fvv0haxNynS5DUKJaAxzbtEr65uxcZjWL6qDP27mNniOZ0UxPQSwf05eZ+2MB6Yf2IUf9cwbJv55rPbVtHTsvTPui5OizgTXa9EbxqnXYHvOav4eyeOWPsZO/smx88Pf1+0fCx4qZBT2zO4iJkklMWqjs72gzcgbbU6Y9ehK70gpTl3PtNBiVm3dkSXQ8aNWEQXh897bO/EQGYzaeY+Jwqnej31gcXL+ElVWKiGmP2atuMZ11GDsmMXkOuk9eidxFNJrJFw9sZ0eFCIcKDduhXo9hMhzahKw8MkX56Yw3vTAmkrAtVbspSGGMXsQIg4ntqquOm5k6JkrpAkkrNswcozq2RNrtNdv3l7YlyoC2d/iZavkmJI8gZCUawi8QMB6BeEPIZCe3SovO8h3SRMWPZtDqlCZrctqE3Ki3D8rU+1MuR5MNWceiiZY7feeIC1f4Q1JYmi63Q/mpLSrL26a4k1sDkBAJmZMbYUCOTComkcaByII7fdjwdDr+4yOdgVWOB0/TtbJUniunfJzoleMRREQduJhXo7ryPhsjtTD1OSDtZRJLk4U2ckSgXz5/lsO8Y9qETPFths+QjK7U5Fl0Xuklc91UtVEZfn+8gDFjov23Qv39RM+71pjqW0HHhJCHDBkCFxcX3m0cP34cEydOlMPCIxBICAjEG0KmlVcH3wWwdy6nGpfHd29JK9/5aDZwHItfMrK7yjpQ8ap10aDnSMkqlrWqHAVowrl97jiWju4VZZ+OZ6YPJnSasJgpE/E4fqXyj0NvYYPfaJ0rBi4GJKtSukxz8nri65XEuS6StTKyjqXtSJJwYutancY5tPPSniit+sgQi5KYdREylf3t9/poNmiclDeZqioinxVj+6nGX5VBCpg6JqY+B0TKPaevlU1JUn/oudnjPwtkHYuw07UNQy8Yrp0GoYKUhxM6vxfCdvcKP+xcNoNHydeYjoljycpo5TVF1V9eOb3M3r1yXpIm9cZLyYSstuOEbIpi2Jw5c5AhQwa5Sm9vb1y8eFEOC49AICEgEG8ImQ8GTYw0adDkQF+UoS8LGeJIkzS3k7NErLmQOHFiPJDsJN+9dk4vEWvXSSvwXIVKSHaUiyHy9Qv2BZx71y7o3DvWLvurh+lrW9kdioCO27yPfM1shccFNkTk9s7l8fnTZ3ZUxxRLYcaOjanPAWFDX/l6+vAeO5PMtz6+1z69oNDJADvpuaPV9Z2rZ3E/+HIUoyja9cR0TOjvJW/RUshilx/PHoexL6xpf2VNu01Tw0kkCcLq1atlyUpYWBh69eplanWinEAg3iIQ7wg53iItOi4QEAjoRKBcuXLo3/+bgp6npyeuX7+uM6+IFAj8yggIQv6VR1fcm0AgHiDg4eGBUqVKsZ6GhoaqyDkedF90USBgNgQEIZsNSlGRQEAgYAoCJUuWhL29PSu6Z88ekMhaOIFAQkRAEHJCHHVxzwIBgYBAQCDw0yEgCPmnGxLRIYGAQEAgIBBIiAgIQk6Ioy7uWSAgEBAICAR+OgQEIf90QyI6JBAQCAgEBAIJEQFByAlx1MU9CwQEAgIBgcBPh4Ag5J9uSESHBAICAYGAQCAhIpDI0dHxi6E3XrOmxrbutm3bDC0i8gkEBAICAYGAQCBBIuA7bqzqvj2Hqj8drEqUAoKQtRERYYGAQEAgIBAQCJgBAUHIZgBRVCEQEAgIBAQCAoGYIiAIOaYIivICAYGAQEAgIBAwAwJGE7KdnZ3Be8gNGzZkXVy/fr0ZuiqqEAgIBAQCAgGBwK+LwJSpk1U316/vt4+oqBK+Bv4PAAD//5/Rw54AACkdSURBVO1dBVxVSRc/BgIWGCAKioWoa9daq67t2tjt6lq4KnZ3J3a32LV2r7Wu+enaYostooKt4H5z5jqXefe9+97jgS7Kmd9P78SZ+s/l/mfOnJkXz9PT81+w0tWuXZtLbty40cocJEYIEAKEACFACMRNBPwnTzLoeFe/bgZhbSAeEbIWEgr/VwikLtUBEqcvCK8C98KzU6v+q2ZQvTGAQM6sDjCtvwcvqZ7fLXgWGhEDpVIRhIAxAvHjAWyfmwXsEsaD4TMfwYGTr4yFdGKS56wEzvnrwfun1+HxrjE6UrZHx0lCzp/fCxo1LM9RGz5iCbx8+cYsgu3b1wQXF2c4d+4GbNr0l1lZStRHoHfvxpAqpROcOHkZ1q07oC9oRYq9qxdk8d3KJYMC2sCr64esyEUisRWB3QuyQkb3RBD2MgIK1QuMrc38ptuVNV8x+LlhO96HgBFd4O2r0G+6P9Fp/P6lXuDuagcvwiKgSH3r3zeHNNkhc4dNvOo7S1rA61vHotMMo7xxkpBbtqwCzZpW4mC0aj0G7tx5ZASMHLF92ziwt08Et249hN/ajJWTvnl/vHjxwNs7Pe9HUNATePPm3Rfr066dEyFhwgQQGBgEvh0NVTNRrTRj61VsdZwfwl8Fw9UJJaOa/avIJ0niAOnTu8K///7L+nzXbJ1Zs3rAxAkduczOXcdh1qw/jOS7d28IpX7Ky+PbtB0HT548N5L5FiN+KZUcJvdTVsczVzyFyUuffLFuxIsXHzy8c/Hyg4Nuwrs31q+OvlijvlLBlVr4Qflmyjs2oXUVeHznOq/ZPWtOaDd+Gfef3LUetsweZdSiut1GQp6fKvP4Se2qw4snD4xkvqUInwrOMKZ7OqU/i5/A7FVPrW5+5nYbwSFtTvjw4h5cn4wLO6t3cS3WQYQcxwnZ09MNFi7ow1+UZQG7YPHiHRZfGlsFYoqQE3vkg4y/rebNeLRjBDw7rnxMbG3Xl8r322/VVE1M02bD4eHDEN2qChTIBuPH+fL0Y8cuQv8B84xkJ038HfLmzcrjrZlIGhUQSyOOrMgGLikTQkTEv5C31hX48DHmPnDaLqfxzAo9Fijv+N5lM2DXkslake82rEfIXgWKQ9txS3i/Lx/dDwsHtjXCoMPE5ZA5bxEeL5O5keA3FHH2j+zg6BAf3r77xN87a5uePGdF8Kg/jYvfW9MZwi7tsjarRTkiZCsIuW/fpuCS2hnO/HMNli2LOfAtjs5XEPgWCdmj3lRI/kMl+PdTBASOLgCfPn65VX10hoAI2TJ6ebwdYd2UTFxw5+Ew6DzynuVM0ZAgQjZeIcdVQu7fzg1a1E7J3ya/Ufdg+6Ew694spmXx7nUUEjg6w9t7Z+HW/PrW5bNCigjZCkK2AsdvVuRbI+QEDsnBu89JjjeujHGFHFsdEbLlkVk6xhOK5kvCBUs1vQaPnn60nCkaEkTIRMji9XG0jw9n2CoZjbyu3n4P1drfEEkWn6lKtoE05XtwueuTy3H1tcVMVgh814Ts6GgPzZtXgjx5skAK52QQePUubNlyhIfN7SGnSJEM6tX72Qg+3Ps8ePAfo3htRLlyBaFK5aLg6urM957RaOzBg6ewfcdROHbsklYcqlcvAVmzusOjR8+40VjjxuWhcKHskDSpI2/z1q1/w+nTV43yYUTixA5QtWox+LFITkiVKjkPPwl+Dteu3YM9e07C5ct3jPJVqFAYcuVSViXOTkmhZMk8XAb3yC9eumUgv2rVPrOq1ooVi0CRItkho2da3t6QZ6Hc+G3Zst1G+9Gyyrp7jxlQo0YJKF48F6RxTQn37gXDuvX7TeIjNyj5D5XBo94UHnVnSUtmVHFUTtb1R3VMREG4x16vXhnIm4cZHWV0gw8fwuHa9XuwefNfcOGCIVaYB+0T8P1Blzt3ZvDM4Mb9hw6fhbCw19yP/0VEfIKpU9ep4ZhSWdvaT2xznTqlIWeOjJAuXWp49iyM73sHLN8FISH6KwfsY/nyhXg/pk1bD4kS2UHlykWgTOn87P1PAcFPX8D69QfhwIEzal9lj1AbRsW4Jn78BFChWSfImr8YOKVOw4t7E/YC7l+/BEc2LYMHNy7LVUDB8rUgY66CPC6pc0rIVbIi9z+8GQh3Lhm268DquRDy0Hi/39k1HZSp/xuk984DyVKkhtCnj+Hu1fOwf+VsePlcf/8xiVMKqPyrcnTl780B8Pj2dfihRHkoVNEH0mXJAdjui3/vhb0BM+AT0/jIDve7S9VtBVnyFIE0Gb0g/ON7uHf1IhzdsgJuX/yfLGrgt3dMzPHJnLsIJE2RCu4Gnodj21YChk3tIcfECjmqYyI3GPH8yaclZMiRD1KlywAvnwWzfl5gmEyHMObXc5lyF4IC5WryLdw/ZgwFu0QOUKiSD+QtXRWcXdPyMTq8YTGcPbBNrwjYszAreKZLBJ/YLkn2KsbfZr2M9i5ZIUtHpdzHO0dByLEleqJqvJeXF/z8cySvXLx4EY4cOaKmo+e7JWR399Qwc0Z3ThIGPWYBJFZv7ww82tReXNGiOWHkCON9FEtGXfjxXrK4P2Ddem7GzI2wYcNBg+SAZQMhbdpU8O7dB05iKVMmN0jHwNJlO2HJkp0G8fLq1iBBCqxZ+yfMmbNZigGYO6cnZMnibhCnFxgzdjkndm26m1tKGDfWV7evaMhUt95AePEi0mhGEPL16/cZaSVlEwgnbbGwYOE2WLFij1G8iEhbfTikKKioiK5NKg0fw8wb5Nk6JlhfpkxpYcL4juDsnFRUb/DcsPEgzJix0SBO9NEgUidQrryfmhJdQo5OP5HEe/VszA3u1AZ99oSHR8Co0ct0J6J+XerxCSWKt2s/AWZM72qynJ69ZhpNKt1S28GhAC9eU+Ctd1C9w83Pteo/cIXrxwzeEiay1xUaWCO/gbFW1zlbGPll15WXE1aN6Qn/22toUIcf/Qa9xkL8BAlkUe6PCP8Iy4Z15qRqlMgiMuUqBL6TV/Kk7fPGQ/EaTcA5jWJMJMuf2L4W1k7qp0a5ZczGDK2WckJVIyXP4Q1LYPNMY+1Q6nSe0HnGBnBMZvwNuXvlHKTPrky+5X3g6BKyLWMiupK/bHWG7ThIkDChiFKfEeHhsGJUNzh3SNnzVxM+e3y6DINi1Rvx0GR2EqbT9PUmy5nbqwVcO/23NjsPLxrlCSUKKBqa5r3vwLGzkZNmkxk+R8ZLYAc5Bl7goVfXDkHQ8jbmxHla8+bNoWZNNoH47K5duwZ9+ij2OyLuuyXkPzaOgmTJEvN+IingShGJMkMGZUYtADBFyEh0/di+sXBIXvjBs0TIffo0gQrlC/NsHz58hNu3H0HQ3cd8/9nLKz1bvdrD7DmbYO3a/aJo/hSELCLfv//AVpk3IVlyR/DOloHXjWmDBi9gM6rzQoytqj1gzuwePPz0aSjcvx8MT0NCITUjOtQKYJvRLWcEt5ARnXDNmlWCQoW8edDRwV4lZ1wJPXxkONufNm0DXGcrQtnhKmjzptFgZ6f8EWF7rzGSffH8JccXLYux7kaNhxpYAmvJ6jmTv3nzARsXF0CCR4cEUOWXnmy18EmuUvVn7bQLEqXKyMOXhuBHlk1tzThbxwRJeM3qYZAgQXxeOmJz5codPsHLlSuzGq+dYA0a1JJrKjBTurSpQUyuEMN3DCfhwj9GAGoJhIsuIdvazzJl8sPAAS1EM/g7ju+sO1sl4/uFDidXLX8dxbUYquBnj0zIqAnCvzkcwxD2Hn5kfUyTJgV/T/r0nQ0nT14xyN6iVkro317RIOz6Kww6jTB8zwyEPwcGrPwLnFw+r4pDX8DDm1f4KgqJKJ1XTv5BHlSrkMGRngpNfwevgiV4CfaJk6rkHBYSDCEP7hhUs2nGcL7SFpGyihvjgu/eYnmCwCV9ZraaU04nID4jG5eC0GDjyaFMyG9fhjKidOJ4vnr2FN6wcPJUrpw8T+3aAKvH9+bVJnFKCYPW/K1OALCdQZf/AcekyQFXhWJisHnGCDi8cYloKn8O3XAKEidXJrqvnodA0JWzkNo9I7hmyGwgF5OEbMuYYGPylqkKTQdEGtWhxiL47k2Gqye4s7FEh9iO/7USBN+7xcPyfzIhvwkL5f1GEg9j2ovwjx8ghZs7JLRLBPP7tILAU4flrKq/b9s08KtPKh5e+sczGDHbeAxVYY3Hu+8pSGCfDCLev2S2LIU0qcbBOEvIlSoV4TN+hOTGjfvQtt14FZ127WpA/Xpl1bApQlYTP3usPfaEH3BUG+NL1LDREECSlF3ZsgU4SSMJyU4mZPyoNWs+Qj0bXaJEbhg2tDUXv3//KTRvMULNinV16VwP5szdxMjYkEhRBbl61VBOHHiUqXoNw5mYKEReZVtrZY2kU7pUPl7ElcA74Oc3jX18w0WRjFxTwYjhv0GPnjNMrpBREFX3/QfMVfPIFsS4Itu3z7RKTvwR4MoYV8iWnK1jIrdn3foDBseQ8Ew6jhke4cJ+16jZl6myjfc+v+Yesi39xEkTTqxw2wPfWbTsPn48Um1XrNgPbByVmb/eZFQmZByL8+dvQq/es1Q8sA7EAbddtFbmslHN1KXBMH1FsNnhdGBkOnzzGS7zhpHx4DrK5FdkwlVWqTqt4ND6hYAfZlNOJlhrrKw7TVvHVKl5eVH7ls+EnYv81WJ9Og+FYjUa8/DVU0dgXp+WaprwyISMcS8ZEc/0awhPpYkArhLZAMCZ/Vt5tvYTAiBLvh+5/9C6RQbHkJxc3KDvsj/ZxMOOk87AmgUg/MN7LotqcFzJo3tw4wr4s+NJwlVr2xtKM5W7cDFFyLaOCarjh/3xP3BIkpS/ewv7t4UrJw6I5kHOomXh1xFzePjRraswsU1VNU14ZELGuFvnTsFcNgYCD6yjSuvucHzbKpPbEJinehknmNjHHb2w58hL6DjceLuCJ5r4L1ObdeDonpunXBqiLHBMiKlRcZaQ58/rzdWNiIQpwt2xfTzf69JLVxH87LGWkIUcfpxxlWetkwl5xswNTKV9yCArqsE9PFx4XJ26AwxIzkBQE8BzrfnyKSpBWT0qi9lCyHv3+PMVMK6EqlXvbUDGctlav1gh48cfJwhv3yofEpTDVeeUyZ15Fu2KXi4n55BAHnx98yjcWdpSTjLpt2VMnJySwIb1I3l5uLfdoqXilyvo168ZlCur7EsOG77YpEr3axKyLf308SkFHX19eLc2bz4CU6aulbvI/atWDuGX4uCYVajYjX88ZSGZkHEyWat2PznZrB/PHuMZZHS/9Q+CQ/97ZVY+RRp36Lf8AJfBPcYpvrXNyptKjCohj9tzlb/r79+8hgE1lEmoXO7o7Re4+vxTRAT0rmSsFpcJGTEc1aSM2TO8uOc8ZP0JXgWuxsf9WlGujvsb9ZkIBcrX4H5UlwuVbvd528AtUzYeLxOuKEC0FcNyenRU1raOScnaTH3bcSBv2tHNK2DD1MGimeqz/4pDfC8YcetdMTt79wy1ZjIho/ZhUG3Lq1S18M8eDzc7+HOx8o08ffENNOx+WyuiG05Xaww451PewSuj2GmPD691ZTEhzhLyxg0jIXnyJGw/9j378CtqIBkp3BfE27rQmSJsWRb94mOnt0oQ8iuWD2IqOkX1iiuFxUt2wD/sqJQlJxMyfvS06lr5w25K9YcXUNSoUZKpi13B1SUFJLK341Wm93BV1fa/VO0FqFrWuqgSMu6r4oQHHRoqDR26SFukblgQMqoz6zcw/ANEA7ytW5TZ/e49J2Ds2BUmyxGE/DJwP9xd2d6kjBxpy5jIWgkkGdRoxI+vqK7ZpJu7JIkd1Unf1m1/g7//Grla7pfH7UufQ7alnwMGNIefyxTgbcV3G43OtP30cHdV99D9uk7lK2C5ozIhL1m6E5ayf9a6mYPTQ/liybg4fgjxg2jJCYLEj/TJHevg4Nr58ISpOa11USHklG4e0DdgPy/6wl97YMkQX6NqcJ8XjcvQafeuMU4m5LuXz8HUTnUwWtflKlEBWgydydORZFCNiys97pQdKLaqTAZpMysrsmNbVsH6KQqxDV1/EhI7OYPe5EFua0wRMrbLljFp0s8f8pWtxruFK2A0btP208Ujk7qHPrNrI7h1/hSXF//JhLx7yVTYs2yaSLL66Zw8AZxYo2B5LvAt1O1yy+q8blUHQ8rCioYkcFxRiHjz3GxeR0dHpj1UtmhQ8Pnz52xx9cIgz3e5hyw+/MHBL7jq2KDHLNCrV2OoxKyD0cUkIWv347B8/HDg/uPKVXvhjz8OY5SRE4SMK85KlbsbpaMVdbeuDXi8dg8ar6PEfWuxX2yU+XMErlyQXLQuqoRcrVpx6OpXnxezaPF2CAjYrS1SNyzGBY262rUfbyS3b6+yn3Tg4BkYPtxwb0wI5xhwDuIltIcPIbfh+rRKIlr3acuYyESqW7CUgHujOFHSOrmcL03ItvRzzuye3Lpf2269sP/kNVz1LKfLhGxqsijLav3DOqWFhlVT8OiRbO9uCdvDs+Qa950E+ctFqmJRHg2rnrBbtzYxI6cb/xwzW0RUCDk3s8ZuPmQGL0+rOhaVNOg5llv2YtgUaciELO8Ti/za5y+te8DPjdppo3XDgScPw/y+rXj6mJ2X+R76iycP+Z62NpPc1pgkZFvGpOvszZAuaw5tE3XD6/0HMkvxVQbpMiGb2yc2yKQJlC6cFOYNz8BjD7E7rX8bGKSR0A96Nl8MSTIrk7FLQ1lfNCt4/Zz6Kd8lIQuV6qNHIdCk6XCj3nfs6AM+tUvx+JgkZCwQV1edO9WF1KmdjOp99eot21+baXSNoiBkXMHiSlbr0Aq2X99mPHr1mj9h7tzN3N+5c12oyVbG6JD4cZVzjxl2ieM1BQt4c+ttTPep0x9CQ41VKlEl5BYtKkPzZpWxSGaib/yB5gk6/wlC1rs60xpC9up2EOySu/FLQS4Py6lTk2F0VMdEnrBdvHiLGeY9MSxQEzpx4hIcOnRWE8vUsFG4qUtW2VtzU9evrUZDUNBjgzqj2s/lAYNUY7odO48blGUqgMaI2mtmZUJu0HCwkd2EqXJEnG+j1ODXwpUHN+x+AX0mPRBJZp/5f67GLLL7Q7KUqY3kgoNuwaR21fj+qlEii4gKIRer3hh8ugzlxexePAX2sGM4WlfDdwA7stOCRweM8DM6YiMT8s6F/rBvxUxtEQZhmTRvXzjNjZwMBDSBy2zf9fzhXTxWrFSfPbwHo5v9rJEEqOk7EEr6NOfxMiHLbbTmpi40stJqJaI6Jv0CDnCjK2wMajosuYPrFqhXfQpZmZBHNCzJjzmJNGufnZq4QKdmynbgul0voJ+/de8glq9+i8Lfw+UReayt0qzcd0nIQsWMVrx49EbrZKOkmCZkURcayvz0Ux6oVfMn8PLyUFewaNiCqyXZCUJGUi1foaucxP1165aBDu1rcf8k/9WwbdtR7t+5YwK3YMWVdYuWo9g55hCDvHgVI1rvoospQpbVuVpjJ4PKTQRigpDTN5wFybKX5aUHjikMEe/CTNRkOsraMcEz6O3b1eSFaDUSpks2HRsVQs6WLT3MmqloR/RW3FOndIEffsjEK6vfYJDu+WBr+ykbruGevi33mMuErPeOmUYHIH8OR1jtr/Tnn8tvoX5X69WFWCbuX+KRpB9/qa9+3DFee4QI44SLCiFnZud/O0xazrMe374G1k3qL4pRn80GToU8pavwsExyQkAmu21zx8KBNfNFksln6bqt2QUVigHm1tljAInIWjdq6zmwc3DkhmPD6isrNzmvXls9vHJBl1kbuai84pbzdpy8mp3lVrY3htcvrns+2Noxka/iNKXql+vW88uEPKROEXgdal5lbKqcGQPTQ4USyrZJn4kPYMMeQxWyqTxKXDzIOeQK9757eAluzlH2kvXlrUv5LgkZrYtxhaqnArZk9KWFThC8pT1kbT4RRmtobBOqlfFCiIqVuokk/hSEjAG0zkZVu+zkIy2/d/LnR7hkwyM8CoVHorROGORgvN7HEo+BLVrYl2ddtXofzJu3RVuMQRiPA61fp1h6X2UXrXTwnWiQbi4QE4ScskgTcPtlEK/m1vwG7Oq6f8xVqZtmbkzw0pQpk7vwvHv3nYLRowN0yzGX0Lp1NWjcqDwXsTTxw0s0Vq4YzGXR/gD3a7UOj7iJo0hoNGjKslubx1w/0UIfL2dB16//XAMLa205euHoEDKWeXlbDnYSIB4EPwuHEo2v6lVjMR6JuVHfCVxOzxgKE13ZcaWei5QV5f5Vc2H7fOOtE1EZ7tUO33SaB+9c+gemM7y0rtvcrep+LhoeaS/3iCohZ/yhIHScoqhmT+/dBCvH9NBWqRsWx4/QwrxPZaZC1Ti5rfLkAS896b/iIJdGS+WZ3RppcgI7+71JPYrU95dcqiWzkaAUYW5MZAv1Bf3aGFhYS0WY9cYEIW+dlQWyZbLn9eSrfQXevP1ktk6RaOeUDry67ufBp3/Ngyd7lXdPpJt6uru7Q+vWrdWk27dvM5uLpWoYPd8lIY8e1Y7dHqW8kKPHBMDevafUTuM5STT6Enuulj6UmDG6hIxlCEMzS4S8a/cJGDfO0KBpy+ax/AwzrqBRpY0fYlwFbdk8Bovm50O1lsDyuVaU0SNkPLqDRInu6NGLMGDgPO439x8aX6ERFjrcC8Y9Ya1D4kYVObZZuJgg5EQpMkDWLnt4kdbekCPq1z71xgQx2bZ1HD/WhJM6PNZkyiAOy8Oz2PKRL7mOKlWKQg/2C03oxrIx3c3G1pwTWy2mrJXxfcXxRtz1Jpp6Zev1E3+oAlfJ6O4ytTyeNdZzev2MLiHvYL9LmyWDPb8pKVf1y6xvke+LXltMxSdO7sytkxGnF48fwMgmpU2J8T1W3GtFd+non7BoYDuTciJy9I6L/CwrWvj2r5YPPr5/K5IALaIHrzvOvyV6hlRRJWQ8ujVy63neTiRWPNYk16lWzjx4xhbP2wrXeuR8yP6j0u+Vo3vA6X2bRBI7w+wEQzeeVL97MiGjkFB343newT6F1HzoQWMrPG6GN4Dpkb1Bhs8Bc2Miax9wm2Fcq4qmiuBx2n4KwZgg5LOb2A9MsCs0Q16EQ7GG1k8InXL9Au51/XlTbi9qCm/unBTN0n0WL14cunePtBFCgy6ZoDHjd0nIeOsVrjrR4ceyc5cpgKs5JGNcHcv7uzFJyPjBxCsrFy7azq5VvMnrRwvo+vXLQtMmyguHZ5Nxr0128goZCWz8hJWwa9cJbvE6dkx7Ve2sPbsrVNZYFh5Z2b79GP9Yo1p50MCWBjcm6REy5hVEiXXjvjDuh5oyAENZdPI5bySHceNXqOeG8dIQvK60YYNy0LjJMJMXg0RnDxnrz9x+Ezi4Zee3dFk6i2zrmODlKS1bKKpInFgMGjxfvSoTLZFLlcrLxxQvQTFliMfbmTkdzJur2AQgnng8Cq/b1FvZTme3XOXI7olZ+WUsKI/ny3Gff8jgX9VLbfAaVbz5Sna29lOuE8cFzyLjVg86nPTVrFkS6viU5icW5DPwou7oEnK9Ss4wsms6Xty0gGDAf3rOI1tu6MhuvTp3aCfsWDhJPT6EatJGvSdApjwKkZw/tAuWDlMmGqbKGrPzEiM8O36MZr3/IF6e3m8D12JHc0qwIzro0FjKv30NbhGcPKUL+DHDJLGPvWfpNNi91FirEVVCxnrwIpOKLRUNzesXz2Hx4A7qVZl4RWXuUpWhfBNffjmJvBJOlTY99GFnlNEhUc/o3ADuXbvAyRiPRIkLVTBdS8jyeev71y5BwPDO/Kw0qvibD56hXiyCN17hzVfCRWdM5DrxFjGcHIlrSPF8czF2qxleqfn+7WsY20LRNIl68RldQpZ/gnHumqcwYaF5WxG5bvETjOGvQ+DqeNQy/Ssnm/THWUJGNEaOaANFi/6gAoPEgSsfrdMSMt7mtXTJAK2YybD2vPHuXZPUG5yQ3DAdf0dZdkOGLoTDh8/JUXzygJMI2eFKOj679Vys5LH9eGGI/Bu47dl1cfXqRhpvYJ2f2KWs4nYpXNWJ+s0Rcteu9aFa1eJy9apf75IOef8RhbFubKO4vQvj9G7qii4hO+epAel8FFVj0LLW8OrGX1idSWfrmGBh8tYGhk31EeNM7fujPLqlS/AqVcVoRImJ/F97NlxWLwspLF+8AxiHGONYvn79Tojwp639xMnp4kX9VI2HqAOf8t+LnoFkdAkZ6zm/OQfYJ4oHoS8joHC9QIwy6WR1Lgrg2d9PEeEG12jiCm48O7tr6j5qUWidLsOhaHVFcyHixBOvajzzZ+S2Da7O8FywfeIkQoRbdSOhC4eXlAyp+yMneBEnnrYQMuaVzxRjGFfo2Ddsj3AY16uCtwjyZ6vhcyFHschvAlqgy20VwlpCxgnGgNV/8dWwkNG+e1g/7tW+e61M2FAuOmOC95D3XLSbr7xFnVgHOvkqTT0jtegSMp4/xnPIeI91fvazn2/ffxLNMPt0SOMNmTts5jKP902CkMNzzMqLxNKlS0Pnzp1FkB95ihMrZNHjnj0bQeVKP4ogf+I1mn/uP61aWaOqFy9/EA4v4MCLOKxx+HGUV0e42sjGrsgUhCiXgQYzM9kdvDt2HJOjuV+skFEGb6jCH5uQHVpN+3acZHTTEcr07duUX1Ahf7TxDwlV3+/ff1StsGv79Fetr+Wy0Y950QAJSRlX9HJZeoSM+fBiiXZtaxp8uDEe6w+8GgTdus0wUPWKFf1ldgXl778r6h6UF05YWe8/cBpGjDDcWxEy+IwXPyFk63mE//zZmzun4PaiJnKygd/WMRGFNG9eGZo0rmDUR0zH8TrKfrt41KhlQtzoiefh8Z5oPPduz86Hy9hqCRkzZ2aralwNmyJxtGHACZ38vooKo9NPnEQNGdwKfvwxh0H7RNl4bnztugNGV75iumzpb+4dE2WZeg7umBaaVE/Bk3yH3oW9RyM/+LI8roR9/VeylZ6byXY+vX8HVozuBrjaMufEDU5FqzYEh6RJWVnxVXEtIWMCqmrbjV+m3gOtCjMPvx2qdwsD1bGc7pkzP/w+dQ2PiqqRFv6ARjm2EpbJSZT97vUrrnJfOaa7iFKf9XuMgcKV66hh9OA1mv/s36ZaWY9rWdHoOko829x80HRI7ZHRIC8G8Kzw0qG/G+WJ7pjgBANX4Khql/82RAPCnj6BQ+sWmjRuq91pCBSvqfztD/YpzDUXIp+lZ86sDvDH9Mxc7MCJV9B2UJClLGq6e91J4JSrKj/pcRXPH1tpWOrn58cMfX9Sy9mzZw/Mnj1bDaPnu1RZyz3Ejw3uJyPRoipWe32fLBtTfm/v9PzD6sIu6Qjmv7x03+g+aLkumZDR2hXbjGpnXDEdOXLByHpazot+NPDKnz8bv6v77NnrqmpVK/elwniVJNbv4uLErwY9d+6GWZV3TLTDKXc1cK+j7H1fn1oRPjy7Y7bYqI6JtjC8DjR//qz8bmokRFzl469zfSmHY587dxb+3uLxJjT0Eqpkc3VGp5/4QcR72/PmzcK3S/AuduynOEZnrt7opOF14ac3Knt5N4LeQ5W2N8wWhwSFe5AuHpkhCds7fsLuOca7np8/NrZlMFtQFBPt7B3Bi10CkjZzdq4KvnH2uFXGTVGsxkgcLyjJkq8oJE/pygnxbuA5i31FostepDS7x9qTH4sypzHQVoir5UyIL8v7OOgG3L7wP1WVrJUV4eiOCU6K8AdAcFxRLf/ozjX2K1XnokSyoi3WPJeN84Qf8yRhRrb/QtEGVyH0VYQ12fgiwLv3cS77mBlyhTCDLmvdvHnz2PcjJRcPZ5qApk2bsi3VjwbZv3tCNuhtLA1oCTmWNjPWNStLx61g7+IFIceXwuMdI2Nd+6hB1iPQtDr7QYWObjxD0QaB8CzUug+k9TWQJCGgIIATwIvbcvLfQV60IQRGz31sNTSpireGNBV7Ae4dX5tYiq2SFRW7pQLs7Oxg5cqVqhZg27Zt7Ad/FhplI0I2guTrRxAhf33MqUZCgBAgBL4WAiVLloSuXbvy6nBV3KRJE7Y6N550EiF/rRExUw8RshlwKIkQIAQIgW8cAU9PT3X/+OLFi3DmzBmTPSJCNgnL140Uv+Zk6vzp120J1UYIEAKEACHwXyFAhPxfIU/1EgKEACFACBACEgJRJuTs2bNbPgH9uYLKlZUfIdi5c6dUJXkJAUKAECAECAFCQIvAqNGGxqn9+vbXihiE4xEhG+BBAUKAECAECAFCIEYQIEKOERipEEKAECAECAFCIHoIECFHDz/KTQgQAoQAIUAIxAgCUSZkZr5t1R5yhw4dbGrgrFmzbMpHmQgBQoAQIAQIgbiEQDwi5Lg03NRXQoAQIAQIgdiKQJQJefZCw5+J0+tY+1a+PIlWyHoIUTwhQAgQAoQAIRCJABFyJBbkIwQIAUKAECAE/jMEiJD/M+ipYkKAECAECAFCIBIBIuRILMhHCBAChAAhQAj8ZwjYRMgt8/wGlTJVgbAPYRD67gX8ff8I7Lq5Dd6Gv1U7QnvIKhTkIQQIAUKAECAELCJgEyH7FugMZTNWMCj8QvA5GHI48lowImQDeChACBAChAAhQAiYRcAmQk4QLwE4JHQA18RpwLdgF8jknJlX4ruzNTx584T7iZDN4k6JhAAhQAgQAoSAAQI2EbJcQm6XPDD4J+UC7aGHB8D54LM8mQhZRon8hAAhQAgQAoSAeQSiTchuSdLC9EpzeS3TTvrDwbt/cj8RsnngKZUQIAQIAUKAEJARiDYhp3Z0gdlVFvIyp5+aDAeC9nE/EbIMM/kJAUKAECAECAHzCBAhm8eHUgkBQoAQIAQIga+CQIwS8sKzc2H7jS284bRC/irjR5UQAoQAIUAIfCcIRJuQ7RM4wPKaazkcZx79D0b+PYT7iZC/kzeEukEIEAKEACHwVRCINiFjKwNqrOXHoCL+jYAWWxrCu/B3QIT8VcaPKiEECAFCgBD4ThCIEUL+yaM0dCnSg0Py5uNrOPHgGHh6e8Lr+K9h8IKB3wlU1A1CgBAgBAgBQuDLIRAjhIzNc0/mAb8X9AOvlN5qa8MShMKvAc3UMHkIAUKAECAECAFCwDQCMULIBd0KQ69i/QFv8EK19amHJ8AtUxp4Ff8VDFo4wHTNFEsIEAKEACFACBACKgIxQsgLqgaAk70TL9Rvjy/ce3mX9pBViMlDCBAChAAhQAhYRiDahGyXIBGsrLme13TtWSD0PaDsJZNRl2XwSYIQIAQIAUKAEBAIRJuQ5Zu6Fp+bD1uvb+JlEyELiOlJCBAChAAhQAhYRiBGCZmuzrQMOEkQAoQAIUAIEAKmEIg2IbsmdoWZlRfwsomQTUFMcYQAIUAIEAKEgGUEok3IWZyzwtiy/rymsUdHwMmHx7mfVNaWwScJQoAQIAQIAUJAIBBtQm6aqwXUylaXl9djX2e4HXqL+4mQBcT0JAQIAUKAECAELCNgEyFXyFQZfs5QDlySuEIKh5S8lpcfXkKb7c0h/FM4DxMhWwafJAgBQoAQIAQIAYGATYTsW6AzlM1YQZQBT948huknJ8OlkAtqHBGyCgV5CAFCgBAgBAgBiwjYRMgeydKDCzPmCnsfCs/fPYNn7J/WESFrEaEwIUAIEAKEACGgj4BNhKxfXGQKEXIkFuQjBAgBQoAQIAQsIUCEbAkhSicECAFCgBAgBL4CAkTIXwFkqoIQIAQIAUKAELCEABGyJYQonRAgBAgBQoAQ+AoIECF/BZCpCkKAECAECAFCwBICUSZkSwVq02fNmqWNojAhQAgQAoQAIUAIaBAgQtYAQkFCgBAgBAgBQuC/QMBqQv4vGkd1EgKEACFACBACcQUBIuS4MtLUT0KAECAECIFYjQARcqweHmocIUAIEAKEQFxBgAg5row09ZMQIAQIAUIgViNAhByrh4caRwgQAoQAIRBXECBCjisjTf0kBAgBQoAQiNUIECHH6uGhxhEChAAhQAjEFQSIkOPKSFM/CQFCgBAgBGI1AkTIsXp4qHGEACFACBACcQUBIuS4MtLUT0KAECAECIFYjQARcqweHmocIUAIEAKEQFxBgAg5row09ZMQIAQIAUIgViPwf5m+mNMlt7v1AAAAAElFTkSuQmCC;" vertex="1" parent="ggkkgFJlhI_n2AfVCItk-317">
          <mxGeometry x="9.190000000000055" y="36" width="208.3" height="68" as="geometry" />
        </mxCell>
        <mxCell id="ggkkgFJlhI_n2AfVCItk-318" value="&lt;font color=&quot;#007fff&quot;&gt;&lt;b&gt;store/Reducers&lt;/b&gt;&lt;/font&gt;" style="swimlane;fontStyle=0;childLayout=stackLayout;horizontal=1;startSize=26;fillColor=none;horizontalStack=0;resizeParent=1;resizeParentMax=0;resizeLast=0;collapsible=1;marginBottom=0;html=1;" vertex="1" parent="1">
          <mxGeometry x="355" y="20" width="140" height="100" as="geometry" />
        </mxCell>
        <mxCell id="ggkkgFJlhI_n2AfVCItk-319" value="&lt;font color=&quot;#007fff&quot;&gt;&lt;b&gt;movies&lt;/b&gt;&lt;/font&gt;&lt;b style=&quot;border-color: var(--border-color); color: rgb(0, 127, 255);&quot;&gt;, filter&lt;/b&gt;&lt;font color=&quot;#007fff&quot;&gt;&lt;b&gt;&lt;br&gt;selectedMovie&lt;br&gt;favoriteMovies&lt;br&gt;user&amp;nbsp;&lt;/b&gt;&lt;/font&gt;" style="text;strokeColor=none;fillColor=none;align=left;verticalAlign=top;spacingLeft=4;spacingRight=4;overflow=hidden;rotatable=0;points=[[0,0.5],[1,0.5]];portConstraint=eastwest;whiteSpace=wrap;html=1;" vertex="1" parent="ggkkgFJlhI_n2AfVCItk-318">
          <mxGeometry y="26" width="140" height="74" as="geometry" />
        </mxCell>
      </root>
    </mxGraphModel>
  </diagram>
</mxfile>
